<?xml version="1.0" encoding="utf-8" standalone="no"?>
<!DOCTYPE svg PUBLIC "-//W3C//DTD SVG 1.1//EN"
  "http://www.w3.org/Graphics/SVG/1.1/DTD/svg11.dtd">
<svg xmlns:xlink="http://www.w3.org/1999/xlink" width="1008pt" height="504pt" viewBox="0 0 1008 504" xmlns="http://www.w3.org/2000/svg" version="1.1">
 <metadata>
  <rdf:RDF xmlns:dc="http://purl.org/dc/elements/1.1/" xmlns:cc="http://creativecommons.org/ns#" xmlns:rdf="http://www.w3.org/1999/02/22-rdf-syntax-ns#">
   <cc:Work>
    <dc:type rdf:resource="http://purl.org/dc/dcmitype/StillImage"/>
    <dc:date>2025-12-09T12:46:29.329925</dc:date>
    <dc:format>image/svg+xml</dc:format>
    <dc:creator>
     <cc:Agent>
      <dc:title>Matplotlib v3.9.4, https://matplotlib.org/</dc:title>
     </cc:Agent>
    </dc:creator>
   </cc:Work>
  </rdf:RDF>
 </metadata>
 <defs>
  <style type="text/css">*{stroke-linejoin: round; stroke-linecap: butt}</style>
 </defs>
 <g id="figure_1">
  <g id="patch_1">
   <path d="M 0 504 
L 1008 504 
L 1008 0 
L 0 0 
z
" style="fill: #ffffff"/>
  </g>
  <g id="axes_1">
   <g id="patch_2">
    <path d="M 47.81 357.59 
L 997.2 357.59 
L 997.2 29.28 
L 47.81 29.28 
z
" style="fill: #ffffff"/>
   </g>
   <g id="matplotlib.axis_1">
    <g id="xtick_1">
     <g id="line2d_1">
      <defs>
       <path id="m39b5b11984" d="M 0 0 
L 0 3.5 
" style="stroke: #000000; stroke-width: 0.8"/>
      </defs>
      <g>
       <use xlink:href="#m39b5b11984" x="110.00266" y="357.59" style="stroke: #000000; stroke-width: 0.8"/>
      </g>
     </g>
     <g id="text_1">
      <!-- gewichtetes Ensemble  -->
      <g transform="translate(107.163129 480.635312) rotate(-90) scale(0.1 -0.1)">
       <defs>
        <path id="DejaVuSans-67" d="M 2906 1791 
Q 2906 2416 2648 2759 
Q 2391 3103 1925 3103 
Q 1463 3103 1205 2759 
Q 947 2416 947 1791 
Q 947 1169 1205 825 
Q 1463 481 1925 481 
Q 2391 481 2648 825 
Q 2906 1169 2906 1791 
z
M 3481 434 
Q 3481 -459 3084 -895 
Q 2688 -1331 1869 -1331 
Q 1566 -1331 1297 -1286 
Q 1028 -1241 775 -1147 
L 775 -588 
Q 1028 -725 1275 -790 
Q 1522 -856 1778 -856 
Q 2344 -856 2625 -561 
Q 2906 -266 2906 331 
L 2906 616 
Q 2728 306 2450 153 
Q 2172 0 1784 0 
Q 1141 0 747 490 
Q 353 981 353 1791 
Q 353 2603 747 3093 
Q 1141 3584 1784 3584 
Q 2172 3584 2450 3431 
Q 2728 3278 2906 2969 
L 2906 3500 
L 3481 3500 
L 3481 434 
z
" transform="scale(0.015625)"/>
        <path id="DejaVuSans-65" d="M 3597 1894 
L 3597 1613 
L 953 1613 
Q 991 1019 1311 708 
Q 1631 397 2203 397 
Q 2534 397 2845 478 
Q 3156 559 3463 722 
L 3463 178 
Q 3153 47 2828 -22 
Q 2503 -91 2169 -91 
Q 1331 -91 842 396 
Q 353 884 353 1716 
Q 353 2575 817 3079 
Q 1281 3584 2069 3584 
Q 2775 3584 3186 3129 
Q 3597 2675 3597 1894 
z
M 3022 2063 
Q 3016 2534 2758 2815 
Q 2500 3097 2075 3097 
Q 1594 3097 1305 2825 
Q 1016 2553 972 2059 
L 3022 2063 
z
" transform="scale(0.015625)"/>
        <path id="DejaVuSans-77" d="M 269 3500 
L 844 3500 
L 1563 769 
L 2278 3500 
L 2956 3500 
L 3675 769 
L 4391 3500 
L 4966 3500 
L 4050 0 
L 3372 0 
L 2619 2869 
L 1863 0 
L 1184 0 
L 269 3500 
z
" transform="scale(0.015625)"/>
        <path id="DejaVuSans-69" d="M 603 3500 
L 1178 3500 
L 1178 0 
L 603 0 
L 603 3500 
z
M 603 4863 
L 1178 4863 
L 1178 4134 
L 603 4134 
L 603 4863 
z
" transform="scale(0.015625)"/>
        <path id="DejaVuSans-63" d="M 3122 3366 
L 3122 2828 
Q 2878 2963 2633 3030 
Q 2388 3097 2138 3097 
Q 1578 3097 1268 2742 
Q 959 2388 959 1747 
Q 959 1106 1268 751 
Q 1578 397 2138 397 
Q 2388 397 2633 464 
Q 2878 531 3122 666 
L 3122 134 
Q 2881 22 2623 -34 
Q 2366 -91 2075 -91 
Q 1284 -91 818 406 
Q 353 903 353 1747 
Q 353 2603 823 3093 
Q 1294 3584 2113 3584 
Q 2378 3584 2631 3529 
Q 2884 3475 3122 3366 
z
" transform="scale(0.015625)"/>
        <path id="DejaVuSans-68" d="M 3513 2113 
L 3513 0 
L 2938 0 
L 2938 2094 
Q 2938 2591 2744 2837 
Q 2550 3084 2163 3084 
Q 1697 3084 1428 2787 
Q 1159 2491 1159 1978 
L 1159 0 
L 581 0 
L 581 4863 
L 1159 4863 
L 1159 2956 
Q 1366 3272 1645 3428 
Q 1925 3584 2291 3584 
Q 2894 3584 3203 3211 
Q 3513 2838 3513 2113 
z
" transform="scale(0.015625)"/>
        <path id="DejaVuSans-74" d="M 1172 4494 
L 1172 3500 
L 2356 3500 
L 2356 3053 
L 1172 3053 
L 1172 1153 
Q 1172 725 1289 603 
Q 1406 481 1766 481 
L 2356 481 
L 2356 0 
L 1766 0 
Q 1100 0 847 248 
Q 594 497 594 1153 
L 594 3053 
L 172 3053 
L 172 3500 
L 594 3500 
L 594 4494 
L 1172 4494 
z
" transform="scale(0.015625)"/>
        <path id="DejaVuSans-73" d="M 2834 3397 
L 2834 2853 
Q 2591 2978 2328 3040 
Q 2066 3103 1784 3103 
Q 1356 3103 1142 2972 
Q 928 2841 928 2578 
Q 928 2378 1081 2264 
Q 1234 2150 1697 2047 
L 1894 2003 
Q 2506 1872 2764 1633 
Q 3022 1394 3022 966 
Q 3022 478 2636 193 
Q 2250 -91 1575 -91 
Q 1294 -91 989 -36 
Q 684 19 347 128 
L 347 722 
Q 666 556 975 473 
Q 1284 391 1588 391 
Q 1994 391 2212 530 
Q 2431 669 2431 922 
Q 2431 1156 2273 1281 
Q 2116 1406 1581 1522 
L 1381 1569 
Q 847 1681 609 1914 
Q 372 2147 372 2553 
Q 372 3047 722 3315 
Q 1072 3584 1716 3584 
Q 2034 3584 2315 3537 
Q 2597 3491 2834 3397 
z
" transform="scale(0.015625)"/>
        <path id="DejaVuSans-20" transform="scale(0.015625)"/>
        <path id="DejaVuSans-45" d="M 628 4666 
L 3578 4666 
L 3578 4134 
L 1259 4134 
L 1259 2753 
L 3481 2753 
L 3481 2222 
L 1259 2222 
L 1259 531 
L 3634 531 
L 3634 0 
L 628 0 
L 628 4666 
z
" transform="scale(0.015625)"/>
        <path id="DejaVuSans-6e" d="M 3513 2113 
L 3513 0 
L 2938 0 
L 2938 2094 
Q 2938 2591 2744 2837 
Q 2550 3084 2163 3084 
Q 1697 3084 1428 2787 
Q 1159 2491 1159 1978 
L 1159 0 
L 581 0 
L 581 3500 
L 1159 3500 
L 1159 2956 
Q 1366 3272 1645 3428 
Q 1925 3584 2291 3584 
Q 2894 3584 3203 3211 
Q 3513 2838 3513 2113 
z
" transform="scale(0.015625)"/>
        <path id="DejaVuSans-6d" d="M 3328 2828 
Q 3544 3216 3844 3400 
Q 4144 3584 4550 3584 
Q 5097 3584 5394 3201 
Q 5691 2819 5691 2113 
L 5691 0 
L 5113 0 
L 5113 2094 
Q 5113 2597 4934 2840 
Q 4756 3084 4391 3084 
Q 3944 3084 3684 2787 
Q 3425 2491 3425 1978 
L 3425 0 
L 2847 0 
L 2847 2094 
Q 2847 2600 2669 2842 
Q 2491 3084 2119 3084 
Q 1678 3084 1418 2786 
Q 1159 2488 1159 1978 
L 1159 0 
L 581 0 
L 581 3500 
L 1159 3500 
L 1159 2956 
Q 1356 3278 1631 3431 
Q 1906 3584 2284 3584 
Q 2666 3584 2933 3390 
Q 3200 3197 3328 2828 
z
" transform="scale(0.015625)"/>
        <path id="DejaVuSans-62" d="M 3116 1747 
Q 3116 2381 2855 2742 
Q 2594 3103 2138 3103 
Q 1681 3103 1420 2742 
Q 1159 2381 1159 1747 
Q 1159 1113 1420 752 
Q 1681 391 2138 391 
Q 2594 391 2855 752 
Q 3116 1113 3116 1747 
z
M 1159 2969 
Q 1341 3281 1617 3432 
Q 1894 3584 2278 3584 
Q 2916 3584 3314 3078 
Q 3713 2572 3713 1747 
Q 3713 922 3314 415 
Q 2916 -91 2278 -91 
Q 1894 -91 1617 61 
Q 1341 213 1159 525 
L 1159 0 
L 581 0 
L 581 4863 
L 1159 4863 
L 1159 2969 
z
" transform="scale(0.015625)"/>
        <path id="DejaVuSans-6c" d="M 603 4863 
L 1178 4863 
L 1178 0 
L 603 0 
L 603 4863 
z
" transform="scale(0.015625)"/>
       </defs>
       <use xlink:href="#DejaVuSans-67"/>
       <use xlink:href="#DejaVuSans-65" x="63.476562"/>
       <use xlink:href="#DejaVuSans-77" x="125"/>
       <use xlink:href="#DejaVuSans-69" x="206.787109"/>
       <use xlink:href="#DejaVuSans-63" x="234.570312"/>
       <use xlink:href="#DejaVuSans-68" x="289.550781"/>
       <use xlink:href="#DejaVuSans-74" x="352.929688"/>
       <use xlink:href="#DejaVuSans-65" x="392.138672"/>
       <use xlink:href="#DejaVuSans-74" x="453.662109"/>
       <use xlink:href="#DejaVuSans-65" x="492.871094"/>
       <use xlink:href="#DejaVuSans-73" x="554.394531"/>
       <use xlink:href="#DejaVuSans-20" x="606.494141"/>
       <use xlink:href="#DejaVuSans-45" x="638.28125"/>
       <use xlink:href="#DejaVuSans-6e" x="701.464844"/>
       <use xlink:href="#DejaVuSans-73" x="764.84375"/>
       <use xlink:href="#DejaVuSans-65" x="816.943359"/>
       <use xlink:href="#DejaVuSans-6d" x="878.466797"/>
       <use xlink:href="#DejaVuSans-62" x="975.878906"/>
       <use xlink:href="#DejaVuSans-6c" x="1039.355469"/>
       <use xlink:href="#DejaVuSans-65" x="1067.138672"/>
       <use xlink:href="#DejaVuSans-20" x="1128.662109"/>
      </g>
      <!-- mit Meta Classifier -->
      <g transform="translate(118.360942 469.249375) rotate(-90) scale(0.1 -0.1)">
       <defs>
        <path id="DejaVuSans-4d" d="M 628 4666 
L 1569 4666 
L 2759 1491 
L 3956 4666 
L 4897 4666 
L 4897 0 
L 4281 0 
L 4281 4097 
L 3078 897 
L 2444 897 
L 1241 4097 
L 1241 0 
L 628 0 
L 628 4666 
z
" transform="scale(0.015625)"/>
        <path id="DejaVuSans-61" d="M 2194 1759 
Q 1497 1759 1228 1600 
Q 959 1441 959 1056 
Q 959 750 1161 570 
Q 1363 391 1709 391 
Q 2188 391 2477 730 
Q 2766 1069 2766 1631 
L 2766 1759 
L 2194 1759 
z
M 3341 1997 
L 3341 0 
L 2766 0 
L 2766 531 
Q 2569 213 2275 61 
Q 1981 -91 1556 -91 
Q 1019 -91 701 211 
Q 384 513 384 1019 
Q 384 1609 779 1909 
Q 1175 2209 1959 2209 
L 2766 2209 
L 2766 2266 
Q 2766 2663 2505 2880 
Q 2244 3097 1772 3097 
Q 1472 3097 1187 3025 
Q 903 2953 641 2809 
L 641 3341 
Q 956 3463 1253 3523 
Q 1550 3584 1831 3584 
Q 2591 3584 2966 3190 
Q 3341 2797 3341 1997 
z
" transform="scale(0.015625)"/>
        <path id="DejaVuSans-43" d="M 4122 4306 
L 4122 3641 
Q 3803 3938 3442 4084 
Q 3081 4231 2675 4231 
Q 1875 4231 1450 3742 
Q 1025 3253 1025 2328 
Q 1025 1406 1450 917 
Q 1875 428 2675 428 
Q 3081 428 3442 575 
Q 3803 722 4122 1019 
L 4122 359 
Q 3791 134 3420 21 
Q 3050 -91 2638 -91 
Q 1578 -91 968 557 
Q 359 1206 359 2328 
Q 359 3453 968 4101 
Q 1578 4750 2638 4750 
Q 3056 4750 3426 4639 
Q 3797 4528 4122 4306 
z
" transform="scale(0.015625)"/>
        <path id="DejaVuSans-66" d="M 2375 4863 
L 2375 4384 
L 1825 4384 
Q 1516 4384 1395 4259 
Q 1275 4134 1275 3809 
L 1275 3500 
L 2222 3500 
L 2222 3053 
L 1275 3053 
L 1275 0 
L 697 0 
L 697 3053 
L 147 3053 
L 147 3500 
L 697 3500 
L 697 3744 
Q 697 4328 969 4595 
Q 1241 4863 1831 4863 
L 2375 4863 
z
" transform="scale(0.015625)"/>
        <path id="DejaVuSans-72" d="M 2631 2963 
Q 2534 3019 2420 3045 
Q 2306 3072 2169 3072 
Q 1681 3072 1420 2755 
Q 1159 2438 1159 1844 
L 1159 0 
L 581 0 
L 581 3500 
L 1159 3500 
L 1159 2956 
Q 1341 3275 1631 3429 
Q 1922 3584 2338 3584 
Q 2397 3584 2469 3576 
Q 2541 3569 2628 3553 
L 2631 2963 
z
" transform="scale(0.015625)"/>
       </defs>
       <use xlink:href="#DejaVuSans-6d"/>
       <use xlink:href="#DejaVuSans-69" x="97.412109"/>
       <use xlink:href="#DejaVuSans-74" x="125.195312"/>
       <use xlink:href="#DejaVuSans-20" x="164.404297"/>
       <use xlink:href="#DejaVuSans-4d" x="196.191406"/>
       <use xlink:href="#DejaVuSans-65" x="282.470703"/>
       <use xlink:href="#DejaVuSans-74" x="343.994141"/>
       <use xlink:href="#DejaVuSans-61" x="383.203125"/>
       <use xlink:href="#DejaVuSans-20" x="444.482422"/>
       <use xlink:href="#DejaVuSans-43" x="476.269531"/>
       <use xlink:href="#DejaVuSans-6c" x="546.09375"/>
       <use xlink:href="#DejaVuSans-61" x="573.876953"/>
       <use xlink:href="#DejaVuSans-73" x="635.15625"/>
       <use xlink:href="#DejaVuSans-73" x="687.255859"/>
       <use xlink:href="#DejaVuSans-69" x="739.355469"/>
       <use xlink:href="#DejaVuSans-66" x="767.138672"/>
       <use xlink:href="#DejaVuSans-69" x="802.34375"/>
       <use xlink:href="#DejaVuSans-65" x="830.126953"/>
       <use xlink:href="#DejaVuSans-72" x="891.650391"/>
      </g>
     </g>
    </g>
    <g id="xtick_2">
     <g id="line2d_2">
      <g>
       <use xlink:href="#m39b5b11984" x="173.464559" y="357.59" style="stroke: #000000; stroke-width: 0.8"/>
      </g>
     </g>
     <g id="text_2">
      <!-- ungewichtetes Ensemble  -->
      <g transform="translate(170.625028 493.310313) rotate(-90) scale(0.1 -0.1)">
       <defs>
        <path id="DejaVuSans-75" d="M 544 1381 
L 544 3500 
L 1119 3500 
L 1119 1403 
Q 1119 906 1312 657 
Q 1506 409 1894 409 
Q 2359 409 2629 706 
Q 2900 1003 2900 1516 
L 2900 3500 
L 3475 3500 
L 3475 0 
L 2900 0 
L 2900 538 
Q 2691 219 2414 64 
Q 2138 -91 1772 -91 
Q 1169 -91 856 284 
Q 544 659 544 1381 
z
M 1991 3584 
L 1991 3584 
z
" transform="scale(0.015625)"/>
       </defs>
       <use xlink:href="#DejaVuSans-75"/>
       <use xlink:href="#DejaVuSans-6e" x="63.378906"/>
       <use xlink:href="#DejaVuSans-67" x="126.757812"/>
       <use xlink:href="#DejaVuSans-65" x="190.234375"/>
       <use xlink:href="#DejaVuSans-77" x="251.757812"/>
       <use xlink:href="#DejaVuSans-69" x="333.544922"/>
       <use xlink:href="#DejaVuSans-63" x="361.328125"/>
       <use xlink:href="#DejaVuSans-68" x="416.308594"/>
       <use xlink:href="#DejaVuSans-74" x="479.6875"/>
       <use xlink:href="#DejaVuSans-65" x="518.896484"/>
       <use xlink:href="#DejaVuSans-74" x="580.419922"/>
       <use xlink:href="#DejaVuSans-65" x="619.628906"/>
       <use xlink:href="#DejaVuSans-73" x="681.152344"/>
       <use xlink:href="#DejaVuSans-20" x="733.251953"/>
       <use xlink:href="#DejaVuSans-45" x="765.039062"/>
       <use xlink:href="#DejaVuSans-6e" x="828.222656"/>
       <use xlink:href="#DejaVuSans-73" x="891.601562"/>
       <use xlink:href="#DejaVuSans-65" x="943.701172"/>
       <use xlink:href="#DejaVuSans-6d" x="1005.224609"/>
       <use xlink:href="#DejaVuSans-62" x="1102.636719"/>
       <use xlink:href="#DejaVuSans-6c" x="1166.113281"/>
       <use xlink:href="#DejaVuSans-65" x="1193.896484"/>
       <use xlink:href="#DejaVuSans-20" x="1255.419922"/>
      </g>
      <!-- mit Meta Classifier -->
      <g transform="translate(181.82284 475.586875) rotate(-90) scale(0.1 -0.1)">
       <use xlink:href="#DejaVuSans-6d"/>
       <use xlink:href="#DejaVuSans-69" x="97.412109"/>
       <use xlink:href="#DejaVuSans-74" x="125.195312"/>
       <use xlink:href="#DejaVuSans-20" x="164.404297"/>
       <use xlink:href="#DejaVuSans-4d" x="196.191406"/>
       <use xlink:href="#DejaVuSans-65" x="282.470703"/>
       <use xlink:href="#DejaVuSans-74" x="343.994141"/>
       <use xlink:href="#DejaVuSans-61" x="383.203125"/>
       <use xlink:href="#DejaVuSans-20" x="444.482422"/>
       <use xlink:href="#DejaVuSans-43" x="476.269531"/>
       <use xlink:href="#DejaVuSans-6c" x="546.09375"/>
       <use xlink:href="#DejaVuSans-61" x="573.876953"/>
       <use xlink:href="#DejaVuSans-73" x="635.15625"/>
       <use xlink:href="#DejaVuSans-73" x="687.255859"/>
       <use xlink:href="#DejaVuSans-69" x="739.355469"/>
       <use xlink:href="#DejaVuSans-66" x="767.138672"/>
       <use xlink:href="#DejaVuSans-69" x="802.34375"/>
       <use xlink:href="#DejaVuSans-65" x="830.126953"/>
       <use xlink:href="#DejaVuSans-72" x="891.650391"/>
      </g>
     </g>
    </g>
    <g id="xtick_3">
     <g id="line2d_3">
      <g>
       <use xlink:href="#m39b5b11984" x="236.926457" y="357.59" style="stroke: #000000; stroke-width: 0.8"/>
      </g>
     </g>
     <g id="text_3">
      <!-- ungewichtetes Ensemble  -->
      <g transform="translate(228.48802 493.310313) rotate(-90) scale(0.1 -0.1)">
       <use xlink:href="#DejaVuSans-75"/>
       <use xlink:href="#DejaVuSans-6e" x="63.378906"/>
       <use xlink:href="#DejaVuSans-67" x="126.757812"/>
       <use xlink:href="#DejaVuSans-65" x="190.234375"/>
       <use xlink:href="#DejaVuSans-77" x="251.757812"/>
       <use xlink:href="#DejaVuSans-69" x="333.544922"/>
       <use xlink:href="#DejaVuSans-63" x="361.328125"/>
       <use xlink:href="#DejaVuSans-68" x="416.308594"/>
       <use xlink:href="#DejaVuSans-74" x="479.6875"/>
       <use xlink:href="#DejaVuSans-65" x="518.896484"/>
       <use xlink:href="#DejaVuSans-74" x="580.419922"/>
       <use xlink:href="#DejaVuSans-65" x="619.628906"/>
       <use xlink:href="#DejaVuSans-73" x="681.152344"/>
       <use xlink:href="#DejaVuSans-20" x="733.251953"/>
       <use xlink:href="#DejaVuSans-45" x="765.039062"/>
       <use xlink:href="#DejaVuSans-6e" x="828.222656"/>
       <use xlink:href="#DejaVuSans-73" x="891.601562"/>
       <use xlink:href="#DejaVuSans-65" x="943.701172"/>
       <use xlink:href="#DejaVuSans-6d" x="1005.224609"/>
       <use xlink:href="#DejaVuSans-62" x="1102.636719"/>
       <use xlink:href="#DejaVuSans-6c" x="1166.113281"/>
       <use xlink:href="#DejaVuSans-65" x="1193.896484"/>
       <use xlink:href="#DejaVuSans-20" x="1255.419922"/>
      </g>
      <!-- mit diversen Detektoren  -->
      <g transform="translate(239.685832 491.507969) rotate(-90) scale(0.1 -0.1)">
       <defs>
        <path id="DejaVuSans-64" d="M 2906 2969 
L 2906 4863 
L 3481 4863 
L 3481 0 
L 2906 0 
L 2906 525 
Q 2725 213 2448 61 
Q 2172 -91 1784 -91 
Q 1150 -91 751 415 
Q 353 922 353 1747 
Q 353 2572 751 3078 
Q 1150 3584 1784 3584 
Q 2172 3584 2448 3432 
Q 2725 3281 2906 2969 
z
M 947 1747 
Q 947 1113 1208 752 
Q 1469 391 1925 391 
Q 2381 391 2643 752 
Q 2906 1113 2906 1747 
Q 2906 2381 2643 2742 
Q 2381 3103 1925 3103 
Q 1469 3103 1208 2742 
Q 947 2381 947 1747 
z
" transform="scale(0.015625)"/>
        <path id="DejaVuSans-76" d="M 191 3500 
L 800 3500 
L 1894 563 
L 2988 3500 
L 3597 3500 
L 2284 0 
L 1503 0 
L 191 3500 
z
" transform="scale(0.015625)"/>
        <path id="DejaVuSans-44" d="M 1259 4147 
L 1259 519 
L 2022 519 
Q 2988 519 3436 956 
Q 3884 1394 3884 2338 
Q 3884 3275 3436 3711 
Q 2988 4147 2022 4147 
L 1259 4147 
z
M 628 4666 
L 1925 4666 
Q 3281 4666 3915 4102 
Q 4550 3538 4550 2338 
Q 4550 1131 3912 565 
Q 3275 0 1925 0 
L 628 0 
L 628 4666 
z
" transform="scale(0.015625)"/>
        <path id="DejaVuSans-6b" d="M 581 4863 
L 1159 4863 
L 1159 1991 
L 2875 3500 
L 3609 3500 
L 1753 1863 
L 3688 0 
L 2938 0 
L 1159 1709 
L 1159 0 
L 581 0 
L 581 4863 
z
" transform="scale(0.015625)"/>
        <path id="DejaVuSans-6f" d="M 1959 3097 
Q 1497 3097 1228 2736 
Q 959 2375 959 1747 
Q 959 1119 1226 758 
Q 1494 397 1959 397 
Q 2419 397 2687 759 
Q 2956 1122 2956 1747 
Q 2956 2369 2687 2733 
Q 2419 3097 1959 3097 
z
M 1959 3584 
Q 2709 3584 3137 3096 
Q 3566 2609 3566 1747 
Q 3566 888 3137 398 
Q 2709 -91 1959 -91 
Q 1206 -91 779 398 
Q 353 888 353 1747 
Q 353 2609 779 3096 
Q 1206 3584 1959 3584 
z
" transform="scale(0.015625)"/>
       </defs>
       <use xlink:href="#DejaVuSans-6d"/>
       <use xlink:href="#DejaVuSans-69" x="97.412109"/>
       <use xlink:href="#DejaVuSans-74" x="125.195312"/>
       <use xlink:href="#DejaVuSans-20" x="164.404297"/>
       <use xlink:href="#DejaVuSans-64" x="196.191406"/>
       <use xlink:href="#DejaVuSans-69" x="259.667969"/>
       <use xlink:href="#DejaVuSans-76" x="287.451172"/>
       <use xlink:href="#DejaVuSans-65" x="346.630859"/>
       <use xlink:href="#DejaVuSans-72" x="408.154297"/>
       <use xlink:href="#DejaVuSans-73" x="449.267578"/>
       <use xlink:href="#DejaVuSans-65" x="501.367188"/>
       <use xlink:href="#DejaVuSans-6e" x="562.890625"/>
       <use xlink:href="#DejaVuSans-20" x="626.269531"/>
       <use xlink:href="#DejaVuSans-44" x="658.056641"/>
       <use xlink:href="#DejaVuSans-65" x="735.058594"/>
       <use xlink:href="#DejaVuSans-74" x="796.582031"/>
       <use xlink:href="#DejaVuSans-65" x="835.791016"/>
       <use xlink:href="#DejaVuSans-6b" x="897.314453"/>
       <use xlink:href="#DejaVuSans-74" x="955.224609"/>
       <use xlink:href="#DejaVuSans-6f" x="994.433594"/>
       <use xlink:href="#DejaVuSans-72" x="1055.615234"/>
       <use xlink:href="#DejaVuSans-65" x="1094.478516"/>
       <use xlink:href="#DejaVuSans-6e" x="1156.001953"/>
       <use xlink:href="#DejaVuSans-20" x="1219.380859"/>
      </g>
      <!-- und Meta Classifier -->
      <g transform="translate(250.883645 476.879062) rotate(-90) scale(0.1 -0.1)">
       <use xlink:href="#DejaVuSans-75"/>
       <use xlink:href="#DejaVuSans-6e" x="63.378906"/>
       <use xlink:href="#DejaVuSans-64" x="126.757812"/>
       <use xlink:href="#DejaVuSans-20" x="190.234375"/>
       <use xlink:href="#DejaVuSans-4d" x="222.021484"/>
       <use xlink:href="#DejaVuSans-65" x="308.300781"/>
       <use xlink:href="#DejaVuSans-74" x="369.824219"/>
       <use xlink:href="#DejaVuSans-61" x="409.033203"/>
       <use xlink:href="#DejaVuSans-20" x="470.3125"/>
       <use xlink:href="#DejaVuSans-43" x="502.099609"/>
       <use xlink:href="#DejaVuSans-6c" x="571.923828"/>
       <use xlink:href="#DejaVuSans-61" x="599.707031"/>
       <use xlink:href="#DejaVuSans-73" x="660.986328"/>
       <use xlink:href="#DejaVuSans-73" x="713.085938"/>
       <use xlink:href="#DejaVuSans-69" x="765.185547"/>
       <use xlink:href="#DejaVuSans-66" x="792.96875"/>
       <use xlink:href="#DejaVuSans-69" x="828.173828"/>
       <use xlink:href="#DejaVuSans-65" x="855.957031"/>
       <use xlink:href="#DejaVuSans-72" x="917.480469"/>
      </g>
     </g>
    </g>
    <g id="xtick_4">
     <g id="line2d_4">
      <g>
       <use xlink:href="#m39b5b11984" x="300.388356" y="357.59" style="stroke: #000000; stroke-width: 0.8"/>
      </g>
     </g>
     <g id="text_4">
      <!-- ConvNext -->
      <g transform="translate(303.147731 413.24625) rotate(-90) scale(0.1 -0.1)">
       <defs>
        <path id="DejaVuSans-4e" d="M 628 4666 
L 1478 4666 
L 3547 763 
L 3547 4666 
L 4159 4666 
L 4159 0 
L 3309 0 
L 1241 3903 
L 1241 0 
L 628 0 
L 628 4666 
z
" transform="scale(0.015625)"/>
        <path id="DejaVuSans-78" d="M 3513 3500 
L 2247 1797 
L 3578 0 
L 2900 0 
L 1881 1375 
L 863 0 
L 184 0 
L 1544 1831 
L 300 3500 
L 978 3500 
L 1906 2253 
L 2834 3500 
L 3513 3500 
z
" transform="scale(0.015625)"/>
       </defs>
       <use xlink:href="#DejaVuSans-43"/>
       <use xlink:href="#DejaVuSans-6f" x="69.824219"/>
       <use xlink:href="#DejaVuSans-6e" x="131.005859"/>
       <use xlink:href="#DejaVuSans-76" x="194.384766"/>
       <use xlink:href="#DejaVuSans-4e" x="253.564453"/>
       <use xlink:href="#DejaVuSans-65" x="328.369141"/>
       <use xlink:href="#DejaVuSans-78" x="388.142578"/>
       <use xlink:href="#DejaVuSans-74" x="447.322266"/>
      </g>
     </g>
    </g>
    <g id="xtick_5">
     <g id="line2d_5">
      <g>
       <use xlink:href="#m39b5b11984" x="363.850254" y="357.59" style="stroke: #000000; stroke-width: 0.8"/>
      </g>
     </g>
     <g id="text_5">
      <!-- gewichtetes Ensemble  -->
      <g transform="translate(355.411817 485.170469) rotate(-90) scale(0.1 -0.1)">
       <use xlink:href="#DejaVuSans-67"/>
       <use xlink:href="#DejaVuSans-65" x="63.476562"/>
       <use xlink:href="#DejaVuSans-77" x="125"/>
       <use xlink:href="#DejaVuSans-69" x="206.787109"/>
       <use xlink:href="#DejaVuSans-63" x="234.570312"/>
       <use xlink:href="#DejaVuSans-68" x="289.550781"/>
       <use xlink:href="#DejaVuSans-74" x="352.929688"/>
       <use xlink:href="#DejaVuSans-65" x="392.138672"/>
       <use xlink:href="#DejaVuSans-74" x="453.662109"/>
       <use xlink:href="#DejaVuSans-65" x="492.871094"/>
       <use xlink:href="#DejaVuSans-73" x="554.394531"/>
       <use xlink:href="#DejaVuSans-20" x="606.494141"/>
       <use xlink:href="#DejaVuSans-45" x="638.28125"/>
       <use xlink:href="#DejaVuSans-6e" x="701.464844"/>
       <use xlink:href="#DejaVuSans-73" x="764.84375"/>
       <use xlink:href="#DejaVuSans-65" x="816.943359"/>
       <use xlink:href="#DejaVuSans-6d" x="878.466797"/>
       <use xlink:href="#DejaVuSans-62" x="975.878906"/>
       <use xlink:href="#DejaVuSans-6c" x="1039.355469"/>
       <use xlink:href="#DejaVuSans-65" x="1067.138672"/>
       <use xlink:href="#DejaVuSans-20" x="1128.662109"/>
      </g>
      <!-- mit diversen Detektoren  -->
      <g transform="translate(366.609629 489.705625) rotate(-90) scale(0.1 -0.1)">
       <use xlink:href="#DejaVuSans-6d"/>
       <use xlink:href="#DejaVuSans-69" x="97.412109"/>
       <use xlink:href="#DejaVuSans-74" x="125.195312"/>
       <use xlink:href="#DejaVuSans-20" x="164.404297"/>
       <use xlink:href="#DejaVuSans-64" x="196.191406"/>
       <use xlink:href="#DejaVuSans-69" x="259.667969"/>
       <use xlink:href="#DejaVuSans-76" x="287.451172"/>
       <use xlink:href="#DejaVuSans-65" x="346.630859"/>
       <use xlink:href="#DejaVuSans-72" x="408.154297"/>
       <use xlink:href="#DejaVuSans-73" x="449.267578"/>
       <use xlink:href="#DejaVuSans-65" x="501.367188"/>
       <use xlink:href="#DejaVuSans-6e" x="562.890625"/>
       <use xlink:href="#DejaVuSans-20" x="626.269531"/>
       <use xlink:href="#DejaVuSans-44" x="658.056641"/>
       <use xlink:href="#DejaVuSans-65" x="735.058594"/>
       <use xlink:href="#DejaVuSans-74" x="796.582031"/>
       <use xlink:href="#DejaVuSans-65" x="835.791016"/>
       <use xlink:href="#DejaVuSans-6b" x="897.314453"/>
       <use xlink:href="#DejaVuSans-74" x="955.224609"/>
       <use xlink:href="#DejaVuSans-6f" x="994.433594"/>
       <use xlink:href="#DejaVuSans-72" x="1055.615234"/>
       <use xlink:href="#DejaVuSans-65" x="1094.478516"/>
       <use xlink:href="#DejaVuSans-6e" x="1156.001953"/>
       <use xlink:href="#DejaVuSans-20" x="1219.380859"/>
      </g>
      <!-- und Meta Classifier -->
      <g transform="translate(377.807442 475.076719) rotate(-90) scale(0.1 -0.1)">
       <use xlink:href="#DejaVuSans-75"/>
       <use xlink:href="#DejaVuSans-6e" x="63.378906"/>
       <use xlink:href="#DejaVuSans-64" x="126.757812"/>
       <use xlink:href="#DejaVuSans-20" x="190.234375"/>
       <use xlink:href="#DejaVuSans-4d" x="222.021484"/>
       <use xlink:href="#DejaVuSans-65" x="308.300781"/>
       <use xlink:href="#DejaVuSans-74" x="369.824219"/>
       <use xlink:href="#DejaVuSans-61" x="409.033203"/>
       <use xlink:href="#DejaVuSans-20" x="470.3125"/>
       <use xlink:href="#DejaVuSans-43" x="502.099609"/>
       <use xlink:href="#DejaVuSans-6c" x="571.923828"/>
       <use xlink:href="#DejaVuSans-61" x="599.707031"/>
       <use xlink:href="#DejaVuSans-73" x="660.986328"/>
       <use xlink:href="#DejaVuSans-73" x="713.085938"/>
       <use xlink:href="#DejaVuSans-69" x="765.185547"/>
       <use xlink:href="#DejaVuSans-66" x="792.96875"/>
       <use xlink:href="#DejaVuSans-69" x="828.173828"/>
       <use xlink:href="#DejaVuSans-65" x="855.957031"/>
       <use xlink:href="#DejaVuSans-72" x="917.480469"/>
      </g>
     </g>
    </g>
    <g id="xtick_6">
     <g id="line2d_6">
      <g>
       <use xlink:href="#m39b5b11984" x="427.312152" y="357.59" style="stroke: #000000; stroke-width: 0.8"/>
      </g>
     </g>
     <g id="text_6">
      <!-- gewichtetes Ensemble -->
      <g transform="translate(430.071527 477.457187) rotate(-90) scale(0.1 -0.1)">
       <use xlink:href="#DejaVuSans-67"/>
       <use xlink:href="#DejaVuSans-65" x="63.476562"/>
       <use xlink:href="#DejaVuSans-77" x="125"/>
       <use xlink:href="#DejaVuSans-69" x="206.787109"/>
       <use xlink:href="#DejaVuSans-63" x="234.570312"/>
       <use xlink:href="#DejaVuSans-68" x="289.550781"/>
       <use xlink:href="#DejaVuSans-74" x="352.929688"/>
       <use xlink:href="#DejaVuSans-65" x="392.138672"/>
       <use xlink:href="#DejaVuSans-74" x="453.662109"/>
       <use xlink:href="#DejaVuSans-65" x="492.871094"/>
       <use xlink:href="#DejaVuSans-73" x="554.394531"/>
       <use xlink:href="#DejaVuSans-20" x="606.494141"/>
       <use xlink:href="#DejaVuSans-45" x="638.28125"/>
       <use xlink:href="#DejaVuSans-6e" x="701.464844"/>
       <use xlink:href="#DejaVuSans-73" x="764.84375"/>
       <use xlink:href="#DejaVuSans-65" x="816.943359"/>
       <use xlink:href="#DejaVuSans-6d" x="878.466797"/>
       <use xlink:href="#DejaVuSans-62" x="975.878906"/>
       <use xlink:href="#DejaVuSans-6c" x="1039.355469"/>
       <use xlink:href="#DejaVuSans-65" x="1067.138672"/>
      </g>
     </g>
    </g>
    <g id="xtick_7">
     <g id="line2d_7">
      <g>
       <use xlink:href="#m39b5b11984" x="490.774051" y="357.59" style="stroke: #000000; stroke-width: 0.8"/>
      </g>
     </g>
     <g id="text_7">
      <!-- ungewichtetes Ensemble  -->
      <g transform="translate(487.93452 493.310313) rotate(-90) scale(0.1 -0.1)">
       <use xlink:href="#DejaVuSans-75"/>
       <use xlink:href="#DejaVuSans-6e" x="63.378906"/>
       <use xlink:href="#DejaVuSans-67" x="126.757812"/>
       <use xlink:href="#DejaVuSans-65" x="190.234375"/>
       <use xlink:href="#DejaVuSans-77" x="251.757812"/>
       <use xlink:href="#DejaVuSans-69" x="333.544922"/>
       <use xlink:href="#DejaVuSans-63" x="361.328125"/>
       <use xlink:href="#DejaVuSans-68" x="416.308594"/>
       <use xlink:href="#DejaVuSans-74" x="479.6875"/>
       <use xlink:href="#DejaVuSans-65" x="518.896484"/>
       <use xlink:href="#DejaVuSans-74" x="580.419922"/>
       <use xlink:href="#DejaVuSans-65" x="619.628906"/>
       <use xlink:href="#DejaVuSans-73" x="681.152344"/>
       <use xlink:href="#DejaVuSans-20" x="733.251953"/>
       <use xlink:href="#DejaVuSans-45" x="765.039062"/>
       <use xlink:href="#DejaVuSans-6e" x="828.222656"/>
       <use xlink:href="#DejaVuSans-73" x="891.601562"/>
       <use xlink:href="#DejaVuSans-65" x="943.701172"/>
       <use xlink:href="#DejaVuSans-6d" x="1005.224609"/>
       <use xlink:href="#DejaVuSans-62" x="1102.636719"/>
       <use xlink:href="#DejaVuSans-6c" x="1166.113281"/>
       <use xlink:href="#DejaVuSans-65" x="1193.896484"/>
       <use xlink:href="#DejaVuSans-20" x="1255.419922"/>
      </g>
      <!-- mit diversen Detektoren -->
      <g transform="translate(499.132332 489.918906) rotate(-90) scale(0.1 -0.1)">
       <use xlink:href="#DejaVuSans-6d"/>
       <use xlink:href="#DejaVuSans-69" x="97.412109"/>
       <use xlink:href="#DejaVuSans-74" x="125.195312"/>
       <use xlink:href="#DejaVuSans-20" x="164.404297"/>
       <use xlink:href="#DejaVuSans-64" x="196.191406"/>
       <use xlink:href="#DejaVuSans-69" x="259.667969"/>
       <use xlink:href="#DejaVuSans-76" x="287.451172"/>
       <use xlink:href="#DejaVuSans-65" x="346.630859"/>
       <use xlink:href="#DejaVuSans-72" x="408.154297"/>
       <use xlink:href="#DejaVuSans-73" x="449.267578"/>
       <use xlink:href="#DejaVuSans-65" x="501.367188"/>
       <use xlink:href="#DejaVuSans-6e" x="562.890625"/>
       <use xlink:href="#DejaVuSans-20" x="626.269531"/>
       <use xlink:href="#DejaVuSans-44" x="658.056641"/>
       <use xlink:href="#DejaVuSans-65" x="735.058594"/>
       <use xlink:href="#DejaVuSans-74" x="796.582031"/>
       <use xlink:href="#DejaVuSans-65" x="835.791016"/>
       <use xlink:href="#DejaVuSans-6b" x="897.314453"/>
       <use xlink:href="#DejaVuSans-74" x="955.224609"/>
       <use xlink:href="#DejaVuSans-6f" x="994.433594"/>
       <use xlink:href="#DejaVuSans-72" x="1055.615234"/>
       <use xlink:href="#DejaVuSans-65" x="1094.478516"/>
       <use xlink:href="#DejaVuSans-6e" x="1156.001953"/>
      </g>
     </g>
    </g>
    <g id="xtick_8">
     <g id="line2d_8">
      <g>
       <use xlink:href="#m39b5b11984" x="554.235949" y="357.59" style="stroke: #000000; stroke-width: 0.8"/>
      </g>
     </g>
     <g id="text_8">
      <!-- ungewichtetes Ensemble -->
      <g transform="translate(556.995324 490.132187) rotate(-90) scale(0.1 -0.1)">
       <use xlink:href="#DejaVuSans-75"/>
       <use xlink:href="#DejaVuSans-6e" x="63.378906"/>
       <use xlink:href="#DejaVuSans-67" x="126.757812"/>
       <use xlink:href="#DejaVuSans-65" x="190.234375"/>
       <use xlink:href="#DejaVuSans-77" x="251.757812"/>
       <use xlink:href="#DejaVuSans-69" x="333.544922"/>
       <use xlink:href="#DejaVuSans-63" x="361.328125"/>
       <use xlink:href="#DejaVuSans-68" x="416.308594"/>
       <use xlink:href="#DejaVuSans-74" x="479.6875"/>
       <use xlink:href="#DejaVuSans-65" x="518.896484"/>
       <use xlink:href="#DejaVuSans-74" x="580.419922"/>
       <use xlink:href="#DejaVuSans-65" x="619.628906"/>
       <use xlink:href="#DejaVuSans-73" x="681.152344"/>
       <use xlink:href="#DejaVuSans-20" x="733.251953"/>
       <use xlink:href="#DejaVuSans-45" x="765.039062"/>
       <use xlink:href="#DejaVuSans-6e" x="828.222656"/>
       <use xlink:href="#DejaVuSans-73" x="891.601562"/>
       <use xlink:href="#DejaVuSans-65" x="943.701172"/>
       <use xlink:href="#DejaVuSans-6d" x="1005.224609"/>
       <use xlink:href="#DejaVuSans-62" x="1102.636719"/>
       <use xlink:href="#DejaVuSans-6c" x="1166.113281"/>
       <use xlink:href="#DejaVuSans-65" x="1193.896484"/>
      </g>
     </g>
    </g>
    <g id="xtick_9">
     <g id="line2d_9">
      <g>
       <use xlink:href="#m39b5b11984" x="617.697848" y="357.59" style="stroke: #000000; stroke-width: 0.8"/>
      </g>
     </g>
     <g id="text_9">
      <!-- gewichtetes Ensemble  -->
      <g transform="translate(614.858316 483.581406) rotate(-90) scale(0.1 -0.1)">
       <use xlink:href="#DejaVuSans-67"/>
       <use xlink:href="#DejaVuSans-65" x="63.476562"/>
       <use xlink:href="#DejaVuSans-77" x="125"/>
       <use xlink:href="#DejaVuSans-69" x="206.787109"/>
       <use xlink:href="#DejaVuSans-63" x="234.570312"/>
       <use xlink:href="#DejaVuSans-68" x="289.550781"/>
       <use xlink:href="#DejaVuSans-74" x="352.929688"/>
       <use xlink:href="#DejaVuSans-65" x="392.138672"/>
       <use xlink:href="#DejaVuSans-74" x="453.662109"/>
       <use xlink:href="#DejaVuSans-65" x="492.871094"/>
       <use xlink:href="#DejaVuSans-73" x="554.394531"/>
       <use xlink:href="#DejaVuSans-20" x="606.494141"/>
       <use xlink:href="#DejaVuSans-45" x="638.28125"/>
       <use xlink:href="#DejaVuSans-6e" x="701.464844"/>
       <use xlink:href="#DejaVuSans-73" x="764.84375"/>
       <use xlink:href="#DejaVuSans-65" x="816.943359"/>
       <use xlink:href="#DejaVuSans-6d" x="878.466797"/>
       <use xlink:href="#DejaVuSans-62" x="975.878906"/>
       <use xlink:href="#DejaVuSans-6c" x="1039.355469"/>
       <use xlink:href="#DejaVuSans-65" x="1067.138672"/>
       <use xlink:href="#DejaVuSans-20" x="1128.662109"/>
      </g>
      <!-- mit diversen Detektoren -->
      <g transform="translate(626.056129 486.5275) rotate(-90) scale(0.1 -0.1)">
       <use xlink:href="#DejaVuSans-6d"/>
       <use xlink:href="#DejaVuSans-69" x="97.412109"/>
       <use xlink:href="#DejaVuSans-74" x="125.195312"/>
       <use xlink:href="#DejaVuSans-20" x="164.404297"/>
       <use xlink:href="#DejaVuSans-64" x="196.191406"/>
       <use xlink:href="#DejaVuSans-69" x="259.667969"/>
       <use xlink:href="#DejaVuSans-76" x="287.451172"/>
       <use xlink:href="#DejaVuSans-65" x="346.630859"/>
       <use xlink:href="#DejaVuSans-72" x="408.154297"/>
       <use xlink:href="#DejaVuSans-73" x="449.267578"/>
       <use xlink:href="#DejaVuSans-65" x="501.367188"/>
       <use xlink:href="#DejaVuSans-6e" x="562.890625"/>
       <use xlink:href="#DejaVuSans-20" x="626.269531"/>
       <use xlink:href="#DejaVuSans-44" x="658.056641"/>
       <use xlink:href="#DejaVuSans-65" x="735.058594"/>
       <use xlink:href="#DejaVuSans-74" x="796.582031"/>
       <use xlink:href="#DejaVuSans-65" x="835.791016"/>
       <use xlink:href="#DejaVuSans-6b" x="897.314453"/>
       <use xlink:href="#DejaVuSans-74" x="955.224609"/>
       <use xlink:href="#DejaVuSans-6f" x="994.433594"/>
       <use xlink:href="#DejaVuSans-72" x="1055.615234"/>
       <use xlink:href="#DejaVuSans-65" x="1094.478516"/>
       <use xlink:href="#DejaVuSans-6e" x="1156.001953"/>
      </g>
     </g>
    </g>
    <g id="xtick_10">
     <g id="line2d_10">
      <g>
       <use xlink:href="#m39b5b11984" x="681.159746" y="357.59" style="stroke: #000000; stroke-width: 0.8"/>
      </g>
     </g>
     <g id="text_10">
      <!-- ResNet -->
      <g transform="translate(683.919121 400.005625) rotate(-90) scale(0.1 -0.1)">
       <defs>
        <path id="DejaVuSans-52" d="M 2841 2188 
Q 3044 2119 3236 1894 
Q 3428 1669 3622 1275 
L 4263 0 
L 3584 0 
L 2988 1197 
Q 2756 1666 2539 1819 
Q 2322 1972 1947 1972 
L 1259 1972 
L 1259 0 
L 628 0 
L 628 4666 
L 2053 4666 
Q 2853 4666 3247 4331 
Q 3641 3997 3641 3322 
Q 3641 2881 3436 2590 
Q 3231 2300 2841 2188 
z
M 1259 4147 
L 1259 2491 
L 2053 2491 
Q 2509 2491 2742 2702 
Q 2975 2913 2975 3322 
Q 2975 3731 2742 3939 
Q 2509 4147 2053 4147 
L 1259 4147 
z
" transform="scale(0.015625)"/>
       </defs>
       <use xlink:href="#DejaVuSans-52"/>
       <use xlink:href="#DejaVuSans-65" x="64.982422"/>
       <use xlink:href="#DejaVuSans-73" x="126.505859"/>
       <use xlink:href="#DejaVuSans-4e" x="178.605469"/>
       <use xlink:href="#DejaVuSans-65" x="253.410156"/>
       <use xlink:href="#DejaVuSans-74" x="314.933594"/>
      </g>
     </g>
    </g>
    <g id="xtick_11">
     <g id="line2d_11">
      <g>
       <use xlink:href="#m39b5b11984" x="744.621644" y="357.59" style="stroke: #000000; stroke-width: 0.8"/>
      </g>
     </g>
     <g id="text_11">
      <!-- Xception -->
      <g transform="translate(747.381019 408.594687) rotate(-90) scale(0.1 -0.1)">
       <defs>
        <path id="DejaVuSans-58" d="M 403 4666 
L 1081 4666 
L 2241 2931 
L 3406 4666 
L 4084 4666 
L 2584 2425 
L 4184 0 
L 3506 0 
L 2194 1984 
L 872 0 
L 191 0 
L 1856 2491 
L 403 4666 
z
" transform="scale(0.015625)"/>
        <path id="DejaVuSans-70" d="M 1159 525 
L 1159 -1331 
L 581 -1331 
L 581 3500 
L 1159 3500 
L 1159 2969 
Q 1341 3281 1617 3432 
Q 1894 3584 2278 3584 
Q 2916 3584 3314 3078 
Q 3713 2572 3713 1747 
Q 3713 922 3314 415 
Q 2916 -91 2278 -91 
Q 1894 -91 1617 61 
Q 1341 213 1159 525 
z
M 3116 1747 
Q 3116 2381 2855 2742 
Q 2594 3103 2138 3103 
Q 1681 3103 1420 2742 
Q 1159 2381 1159 1747 
Q 1159 1113 1420 752 
Q 1681 391 2138 391 
Q 2594 391 2855 752 
Q 3116 1113 3116 1747 
z
" transform="scale(0.015625)"/>
       </defs>
       <use xlink:href="#DejaVuSans-58"/>
       <use xlink:href="#DejaVuSans-63" x="68.505859"/>
       <use xlink:href="#DejaVuSans-65" x="123.486328"/>
       <use xlink:href="#DejaVuSans-70" x="185.009766"/>
       <use xlink:href="#DejaVuSans-74" x="248.486328"/>
       <use xlink:href="#DejaVuSans-69" x="287.695312"/>
       <use xlink:href="#DejaVuSans-6f" x="315.478516"/>
       <use xlink:href="#DejaVuSans-6e" x="376.660156"/>
      </g>
     </g>
    </g>
    <g id="xtick_12">
     <g id="line2d_12">
      <g>
       <use xlink:href="#m39b5b11984" x="808.083543" y="357.59" style="stroke: #000000; stroke-width: 0.8"/>
      </g>
     </g>
     <g id="text_12">
      <!-- DenseNet -->
      <g transform="translate(810.842918 413.697812) rotate(-90) scale(0.1 -0.1)">
       <use xlink:href="#DejaVuSans-44"/>
       <use xlink:href="#DejaVuSans-65" x="77.001953"/>
       <use xlink:href="#DejaVuSans-6e" x="138.525391"/>
       <use xlink:href="#DejaVuSans-73" x="201.904297"/>
       <use xlink:href="#DejaVuSans-65" x="254.003906"/>
       <use xlink:href="#DejaVuSans-4e" x="315.527344"/>
       <use xlink:href="#DejaVuSans-65" x="390.332031"/>
       <use xlink:href="#DejaVuSans-74" x="451.855469"/>
      </g>
     </g>
    </g>
    <g id="xtick_13">
     <g id="line2d_13">
      <g>
       <use xlink:href="#m39b5b11984" x="871.545441" y="357.59" style="stroke: #000000; stroke-width: 0.8"/>
      </g>
     </g>
     <g id="text_13">
      <!-- EfficientNet -->
      <g transform="translate(874.304816 422.969687) rotate(-90) scale(0.1 -0.1)">
       <use xlink:href="#DejaVuSans-45"/>
       <use xlink:href="#DejaVuSans-66" x="63.183594"/>
       <use xlink:href="#DejaVuSans-66" x="98.388672"/>
       <use xlink:href="#DejaVuSans-69" x="133.59375"/>
       <use xlink:href="#DejaVuSans-63" x="161.376953"/>
       <use xlink:href="#DejaVuSans-69" x="216.357422"/>
       <use xlink:href="#DejaVuSans-65" x="244.140625"/>
       <use xlink:href="#DejaVuSans-6e" x="305.664062"/>
       <use xlink:href="#DejaVuSans-74" x="369.042969"/>
       <use xlink:href="#DejaVuSans-4e" x="408.251953"/>
       <use xlink:href="#DejaVuSans-65" x="483.056641"/>
       <use xlink:href="#DejaVuSans-74" x="544.580078"/>
      </g>
     </g>
    </g>
    <g id="xtick_14">
     <g id="line2d_14">
      <g>
       <use xlink:href="#m39b5b11984" x="935.00734" y="357.59" style="stroke: #000000; stroke-width: 0.8"/>
      </g>
     </g>
     <g id="text_14">
      <!-- MobileNetV2 -->
      <g transform="translate(937.766715 428.1525) rotate(-90) scale(0.1 -0.1)">
       <defs>
        <path id="DejaVuSans-56" d="M 1831 0 
L 50 4666 
L 709 4666 
L 2188 738 
L 3669 4666 
L 4325 4666 
L 2547 0 
L 1831 0 
z
" transform="scale(0.015625)"/>
        <path id="DejaVuSans-32" d="M 1228 531 
L 3431 531 
L 3431 0 
L 469 0 
L 469 531 
Q 828 903 1448 1529 
Q 2069 2156 2228 2338 
Q 2531 2678 2651 2914 
Q 2772 3150 2772 3378 
Q 2772 3750 2511 3984 
Q 2250 4219 1831 4219 
Q 1534 4219 1204 4116 
Q 875 4013 500 3803 
L 500 4441 
Q 881 4594 1212 4672 
Q 1544 4750 1819 4750 
Q 2544 4750 2975 4387 
Q 3406 4025 3406 3419 
Q 3406 3131 3298 2873 
Q 3191 2616 2906 2266 
Q 2828 2175 2409 1742 
Q 1991 1309 1228 531 
z
" transform="scale(0.015625)"/>
       </defs>
       <use xlink:href="#DejaVuSans-4d"/>
       <use xlink:href="#DejaVuSans-6f" x="86.279297"/>
       <use xlink:href="#DejaVuSans-62" x="147.460938"/>
       <use xlink:href="#DejaVuSans-69" x="210.9375"/>
       <use xlink:href="#DejaVuSans-6c" x="238.720703"/>
       <use xlink:href="#DejaVuSans-65" x="266.503906"/>
       <use xlink:href="#DejaVuSans-4e" x="328.027344"/>
       <use xlink:href="#DejaVuSans-65" x="402.832031"/>
       <use xlink:href="#DejaVuSans-74" x="464.355469"/>
       <use xlink:href="#DejaVuSans-56" x="503.564453"/>
       <use xlink:href="#DejaVuSans-32" x="571.972656"/>
      </g>
     </g>
    </g>
   </g>
   <g id="matplotlib.axis_2">
    <g id="ytick_1">
     <g id="line2d_15">
      <path d="M 47.81 357.59 
L 997.2 357.59 
" clip-path="url(#pf3752c77e5)" style="fill: none; stroke-dasharray: 1.85,0.8; stroke-dashoffset: 0; stroke: #b0b0b0; stroke-opacity: 0.5; stroke-width: 0.5"/>
     </g>
     <g id="line2d_16">
      <defs>
       <path id="mbf3a763e31" d="M 0 0 
L -3.5 0 
" style="stroke: #000000; stroke-width: 0.8"/>
      </defs>
      <g>
       <use xlink:href="#mbf3a763e31" x="47.81" y="357.59" style="stroke: #000000; stroke-width: 0.8"/>
      </g>
     </g>
     <g id="text_15">
      <!-- 0.0 -->
      <g transform="translate(24.906875 361.389219) scale(0.1 -0.1)">
       <defs>
        <path id="DejaVuSans-30" d="M 2034 4250 
Q 1547 4250 1301 3770 
Q 1056 3291 1056 2328 
Q 1056 1369 1301 889 
Q 1547 409 2034 409 
Q 2525 409 2770 889 
Q 3016 1369 3016 2328 
Q 3016 3291 2770 3770 
Q 2525 4250 2034 4250 
z
M 2034 4750 
Q 2819 4750 3233 4129 
Q 3647 3509 3647 2328 
Q 3647 1150 3233 529 
Q 2819 -91 2034 -91 
Q 1250 -91 836 529 
Q 422 1150 422 2328 
Q 422 3509 836 4129 
Q 1250 4750 2034 4750 
z
" transform="scale(0.015625)"/>
        <path id="DejaVuSans-2e" d="M 684 794 
L 1344 794 
L 1344 0 
L 684 0 
L 684 794 
z
" transform="scale(0.015625)"/>
       </defs>
       <use xlink:href="#DejaVuSans-30"/>
       <use xlink:href="#DejaVuSans-2e" x="63.623047"/>
       <use xlink:href="#DejaVuSans-30" x="95.410156"/>
      </g>
     </g>
    </g>
    <g id="ytick_2">
     <g id="line2d_17">
      <path d="M 47.81 324.759 
L 997.2 324.759 
" clip-path="url(#pf3752c77e5)" style="fill: none; stroke-dasharray: 1.85,0.8; stroke-dashoffset: 0; stroke: #b0b0b0; stroke-opacity: 0.5; stroke-width: 0.5"/>
     </g>
     <g id="line2d_18">
      <g>
       <use xlink:href="#mbf3a763e31" x="47.81" y="324.759" style="stroke: #000000; stroke-width: 0.8"/>
      </g>
     </g>
     <g id="text_16">
      <!-- 0.1 -->
      <g transform="translate(24.906875 328.558219) scale(0.1 -0.1)">
       <defs>
        <path id="DejaVuSans-31" d="M 794 531 
L 1825 531 
L 1825 4091 
L 703 3866 
L 703 4441 
L 1819 4666 
L 2450 4666 
L 2450 531 
L 3481 531 
L 3481 0 
L 794 0 
L 794 531 
z
" transform="scale(0.015625)"/>
       </defs>
       <use xlink:href="#DejaVuSans-30"/>
       <use xlink:href="#DejaVuSans-2e" x="63.623047"/>
       <use xlink:href="#DejaVuSans-31" x="95.410156"/>
      </g>
     </g>
    </g>
    <g id="ytick_3">
     <g id="line2d_19">
      <path d="M 47.81 291.928 
L 997.2 291.928 
" clip-path="url(#pf3752c77e5)" style="fill: none; stroke-dasharray: 1.85,0.8; stroke-dashoffset: 0; stroke: #b0b0b0; stroke-opacity: 0.5; stroke-width: 0.5"/>
     </g>
     <g id="line2d_20">
      <g>
       <use xlink:href="#mbf3a763e31" x="47.81" y="291.928" style="stroke: #000000; stroke-width: 0.8"/>
      </g>
     </g>
     <g id="text_17">
      <!-- 0.2 -->
      <g transform="translate(24.906875 295.727219) scale(0.1 -0.1)">
       <use xlink:href="#DejaVuSans-30"/>
       <use xlink:href="#DejaVuSans-2e" x="63.623047"/>
       <use xlink:href="#DejaVuSans-32" x="95.410156"/>
      </g>
     </g>
    </g>
    <g id="ytick_4">
     <g id="line2d_21">
      <path d="M 47.81 259.097 
L 997.2 259.097 
" clip-path="url(#pf3752c77e5)" style="fill: none; stroke-dasharray: 1.85,0.8; stroke-dashoffset: 0; stroke: #b0b0b0; stroke-opacity: 0.5; stroke-width: 0.5"/>
     </g>
     <g id="line2d_22">
      <g>
       <use xlink:href="#mbf3a763e31" x="47.81" y="259.097" style="stroke: #000000; stroke-width: 0.8"/>
      </g>
     </g>
     <g id="text_18">
      <!-- 0.3 -->
      <g transform="translate(24.906875 262.896219) scale(0.1 -0.1)">
       <defs>
        <path id="DejaVuSans-33" d="M 2597 2516 
Q 3050 2419 3304 2112 
Q 3559 1806 3559 1356 
Q 3559 666 3084 287 
Q 2609 -91 1734 -91 
Q 1441 -91 1130 -33 
Q 819 25 488 141 
L 488 750 
Q 750 597 1062 519 
Q 1375 441 1716 441 
Q 2309 441 2620 675 
Q 2931 909 2931 1356 
Q 2931 1769 2642 2001 
Q 2353 2234 1838 2234 
L 1294 2234 
L 1294 2753 
L 1863 2753 
Q 2328 2753 2575 2939 
Q 2822 3125 2822 3475 
Q 2822 3834 2567 4026 
Q 2313 4219 1838 4219 
Q 1578 4219 1281 4162 
Q 984 4106 628 3988 
L 628 4550 
Q 988 4650 1302 4700 
Q 1616 4750 1894 4750 
Q 2613 4750 3031 4423 
Q 3450 4097 3450 3541 
Q 3450 3153 3228 2886 
Q 3006 2619 2597 2516 
z
" transform="scale(0.015625)"/>
       </defs>
       <use xlink:href="#DejaVuSans-30"/>
       <use xlink:href="#DejaVuSans-2e" x="63.623047"/>
       <use xlink:href="#DejaVuSans-33" x="95.410156"/>
      </g>
     </g>
    </g>
    <g id="ytick_5">
     <g id="line2d_23">
      <path d="M 47.81 226.266 
L 997.2 226.266 
" clip-path="url(#pf3752c77e5)" style="fill: none; stroke-dasharray: 1.85,0.8; stroke-dashoffset: 0; stroke: #b0b0b0; stroke-opacity: 0.5; stroke-width: 0.5"/>
     </g>
     <g id="line2d_24">
      <g>
       <use xlink:href="#mbf3a763e31" x="47.81" y="226.266" style="stroke: #000000; stroke-width: 0.8"/>
      </g>
     </g>
     <g id="text_19">
      <!-- 0.4 -->
      <g transform="translate(24.906875 230.065219) scale(0.1 -0.1)">
       <defs>
        <path id="DejaVuSans-34" d="M 2419 4116 
L 825 1625 
L 2419 1625 
L 2419 4116 
z
M 2253 4666 
L 3047 4666 
L 3047 1625 
L 3713 1625 
L 3713 1100 
L 3047 1100 
L 3047 0 
L 2419 0 
L 2419 1100 
L 313 1100 
L 313 1709 
L 2253 4666 
z
" transform="scale(0.015625)"/>
       </defs>
       <use xlink:href="#DejaVuSans-30"/>
       <use xlink:href="#DejaVuSans-2e" x="63.623047"/>
       <use xlink:href="#DejaVuSans-34" x="95.410156"/>
      </g>
     </g>
    </g>
    <g id="ytick_6">
     <g id="line2d_25">
      <path d="M 47.81 193.435 
L 997.2 193.435 
" clip-path="url(#pf3752c77e5)" style="fill: none; stroke-dasharray: 1.85,0.8; stroke-dashoffset: 0; stroke: #b0b0b0; stroke-opacity: 0.5; stroke-width: 0.5"/>
     </g>
     <g id="line2d_26">
      <g>
       <use xlink:href="#mbf3a763e31" x="47.81" y="193.435" style="stroke: #000000; stroke-width: 0.8"/>
      </g>
     </g>
     <g id="text_20">
      <!-- 0.5 -->
      <g transform="translate(24.906875 197.234219) scale(0.1 -0.1)">
       <defs>
        <path id="DejaVuSans-35" d="M 691 4666 
L 3169 4666 
L 3169 4134 
L 1269 4134 
L 1269 2991 
Q 1406 3038 1543 3061 
Q 1681 3084 1819 3084 
Q 2600 3084 3056 2656 
Q 3513 2228 3513 1497 
Q 3513 744 3044 326 
Q 2575 -91 1722 -91 
Q 1428 -91 1123 -41 
Q 819 9 494 109 
L 494 744 
Q 775 591 1075 516 
Q 1375 441 1709 441 
Q 2250 441 2565 725 
Q 2881 1009 2881 1497 
Q 2881 1984 2565 2268 
Q 2250 2553 1709 2553 
Q 1456 2553 1204 2497 
Q 953 2441 691 2322 
L 691 4666 
z
" transform="scale(0.015625)"/>
       </defs>
       <use xlink:href="#DejaVuSans-30"/>
       <use xlink:href="#DejaVuSans-2e" x="63.623047"/>
       <use xlink:href="#DejaVuSans-35" x="95.410156"/>
      </g>
     </g>
    </g>
    <g id="ytick_7">
     <g id="line2d_27">
      <path d="M 47.81 160.604 
L 997.2 160.604 
" clip-path="url(#pf3752c77e5)" style="fill: none; stroke-dasharray: 1.85,0.8; stroke-dashoffset: 0; stroke: #b0b0b0; stroke-opacity: 0.5; stroke-width: 0.5"/>
     </g>
     <g id="line2d_28">
      <g>
       <use xlink:href="#mbf3a763e31" x="47.81" y="160.604" style="stroke: #000000; stroke-width: 0.8"/>
      </g>
     </g>
     <g id="text_21">
      <!-- 0.6 -->
      <g transform="translate(24.906875 164.403219) scale(0.1 -0.1)">
       <defs>
        <path id="DejaVuSans-36" d="M 2113 2584 
Q 1688 2584 1439 2293 
Q 1191 2003 1191 1497 
Q 1191 994 1439 701 
Q 1688 409 2113 409 
Q 2538 409 2786 701 
Q 3034 994 3034 1497 
Q 3034 2003 2786 2293 
Q 2538 2584 2113 2584 
z
M 3366 4563 
L 3366 3988 
Q 3128 4100 2886 4159 
Q 2644 4219 2406 4219 
Q 1781 4219 1451 3797 
Q 1122 3375 1075 2522 
Q 1259 2794 1537 2939 
Q 1816 3084 2150 3084 
Q 2853 3084 3261 2657 
Q 3669 2231 3669 1497 
Q 3669 778 3244 343 
Q 2819 -91 2113 -91 
Q 1303 -91 875 529 
Q 447 1150 447 2328 
Q 447 3434 972 4092 
Q 1497 4750 2381 4750 
Q 2619 4750 2861 4703 
Q 3103 4656 3366 4563 
z
" transform="scale(0.015625)"/>
       </defs>
       <use xlink:href="#DejaVuSans-30"/>
       <use xlink:href="#DejaVuSans-2e" x="63.623047"/>
       <use xlink:href="#DejaVuSans-36" x="95.410156"/>
      </g>
     </g>
    </g>
    <g id="ytick_8">
     <g id="line2d_29">
      <path d="M 47.81 127.773 
L 997.2 127.773 
" clip-path="url(#pf3752c77e5)" style="fill: none; stroke-dasharray: 1.85,0.8; stroke-dashoffset: 0; stroke: #b0b0b0; stroke-opacity: 0.5; stroke-width: 0.5"/>
     </g>
     <g id="line2d_30">
      <g>
       <use xlink:href="#mbf3a763e31" x="47.81" y="127.773" style="stroke: #000000; stroke-width: 0.8"/>
      </g>
     </g>
     <g id="text_22">
      <!-- 0.7 -->
      <g transform="translate(24.906875 131.572219) scale(0.1 -0.1)">
       <defs>
        <path id="DejaVuSans-37" d="M 525 4666 
L 3525 4666 
L 3525 4397 
L 1831 0 
L 1172 0 
L 2766 4134 
L 525 4134 
L 525 4666 
z
" transform="scale(0.015625)"/>
       </defs>
       <use xlink:href="#DejaVuSans-30"/>
       <use xlink:href="#DejaVuSans-2e" x="63.623047"/>
       <use xlink:href="#DejaVuSans-37" x="95.410156"/>
      </g>
     </g>
    </g>
    <g id="ytick_9">
     <g id="line2d_31">
      <path d="M 47.81 94.942 
L 997.2 94.942 
" clip-path="url(#pf3752c77e5)" style="fill: none; stroke-dasharray: 1.85,0.8; stroke-dashoffset: 0; stroke: #b0b0b0; stroke-opacity: 0.5; stroke-width: 0.5"/>
     </g>
     <g id="line2d_32">
      <g>
       <use xlink:href="#mbf3a763e31" x="47.81" y="94.942" style="stroke: #000000; stroke-width: 0.8"/>
      </g>
     </g>
     <g id="text_23">
      <!-- 0.8 -->
      <g transform="translate(24.906875 98.741219) scale(0.1 -0.1)">
       <defs>
        <path id="DejaVuSans-38" d="M 2034 2216 
Q 1584 2216 1326 1975 
Q 1069 1734 1069 1313 
Q 1069 891 1326 650 
Q 1584 409 2034 409 
Q 2484 409 2743 651 
Q 3003 894 3003 1313 
Q 3003 1734 2745 1975 
Q 2488 2216 2034 2216 
z
M 1403 2484 
Q 997 2584 770 2862 
Q 544 3141 544 3541 
Q 544 4100 942 4425 
Q 1341 4750 2034 4750 
Q 2731 4750 3128 4425 
Q 3525 4100 3525 3541 
Q 3525 3141 3298 2862 
Q 3072 2584 2669 2484 
Q 3125 2378 3379 2068 
Q 3634 1759 3634 1313 
Q 3634 634 3220 271 
Q 2806 -91 2034 -91 
Q 1263 -91 848 271 
Q 434 634 434 1313 
Q 434 1759 690 2068 
Q 947 2378 1403 2484 
z
M 1172 3481 
Q 1172 3119 1398 2916 
Q 1625 2713 2034 2713 
Q 2441 2713 2670 2916 
Q 2900 3119 2900 3481 
Q 2900 3844 2670 4047 
Q 2441 4250 2034 4250 
Q 1625 4250 1398 4047 
Q 1172 3844 1172 3481 
z
" transform="scale(0.015625)"/>
       </defs>
       <use xlink:href="#DejaVuSans-30"/>
       <use xlink:href="#DejaVuSans-2e" x="63.623047"/>
       <use xlink:href="#DejaVuSans-38" x="95.410156"/>
      </g>
     </g>
    </g>
    <g id="ytick_10">
     <g id="line2d_33">
      <path d="M 47.81 62.111 
L 997.2 62.111 
" clip-path="url(#pf3752c77e5)" style="fill: none; stroke-dasharray: 1.85,0.8; stroke-dashoffset: 0; stroke: #b0b0b0; stroke-opacity: 0.5; stroke-width: 0.5"/>
     </g>
     <g id="line2d_34">
      <g>
       <use xlink:href="#mbf3a763e31" x="47.81" y="62.111" style="stroke: #000000; stroke-width: 0.8"/>
      </g>
     </g>
     <g id="text_24">
      <!-- 0.9 -->
      <g transform="translate(24.906875 65.910219) scale(0.1 -0.1)">
       <defs>
        <path id="DejaVuSans-39" d="M 703 97 
L 703 672 
Q 941 559 1184 500 
Q 1428 441 1663 441 
Q 2288 441 2617 861 
Q 2947 1281 2994 2138 
Q 2813 1869 2534 1725 
Q 2256 1581 1919 1581 
Q 1219 1581 811 2004 
Q 403 2428 403 3163 
Q 403 3881 828 4315 
Q 1253 4750 1959 4750 
Q 2769 4750 3195 4129 
Q 3622 3509 3622 2328 
Q 3622 1225 3098 567 
Q 2575 -91 1691 -91 
Q 1453 -91 1209 -44 
Q 966 3 703 97 
z
M 1959 2075 
Q 2384 2075 2632 2365 
Q 2881 2656 2881 3163 
Q 2881 3666 2632 3958 
Q 2384 4250 1959 4250 
Q 1534 4250 1286 3958 
Q 1038 3666 1038 3163 
Q 1038 2656 1286 2365 
Q 1534 2075 1959 2075 
z
" transform="scale(0.015625)"/>
       </defs>
       <use xlink:href="#DejaVuSans-30"/>
       <use xlink:href="#DejaVuSans-2e" x="63.623047"/>
       <use xlink:href="#DejaVuSans-39" x="95.410156"/>
      </g>
     </g>
    </g>
    <g id="ytick_11">
     <g id="line2d_35">
      <path d="M 47.81 29.28 
L 997.2 29.28 
" clip-path="url(#pf3752c77e5)" style="fill: none; stroke-dasharray: 1.85,0.8; stroke-dashoffset: 0; stroke: #b0b0b0; stroke-opacity: 0.5; stroke-width: 0.5"/>
     </g>
     <g id="line2d_36">
      <g>
       <use xlink:href="#mbf3a763e31" x="47.81" y="29.28" style="stroke: #000000; stroke-width: 0.8"/>
      </g>
     </g>
     <g id="text_25">
      <!-- 1.0 -->
      <g transform="translate(24.906875 33.079219) scale(0.1 -0.1)">
       <use xlink:href="#DejaVuSans-31"/>
       <use xlink:href="#DejaVuSans-2e" x="63.623047"/>
       <use xlink:href="#DejaVuSans-30" x="95.410156"/>
      </g>
     </g>
    </g>
    <g id="text_26">
     <!-- Accuracy -->
     <g transform="translate(18.827188 216.263125) rotate(-90) scale(0.1 -0.1)">
      <defs>
       <path id="DejaVuSans-41" d="M 2188 4044 
L 1331 1722 
L 3047 1722 
L 2188 4044 
z
M 1831 4666 
L 2547 4666 
L 4325 0 
L 3669 0 
L 3244 1197 
L 1141 1197 
L 716 0 
L 50 0 
L 1831 4666 
z
" transform="scale(0.015625)"/>
       <path id="DejaVuSans-79" d="M 2059 -325 
Q 1816 -950 1584 -1140 
Q 1353 -1331 966 -1331 
L 506 -1331 
L 506 -850 
L 844 -850 
Q 1081 -850 1212 -737 
Q 1344 -625 1503 -206 
L 1606 56 
L 191 3500 
L 800 3500 
L 1894 763 
L 2988 3500 
L 3597 3500 
L 2059 -325 
z
" transform="scale(0.015625)"/>
      </defs>
      <use xlink:href="#DejaVuSans-41"/>
      <use xlink:href="#DejaVuSans-63" x="66.658203"/>
      <use xlink:href="#DejaVuSans-63" x="121.638672"/>
      <use xlink:href="#DejaVuSans-75" x="176.619141"/>
      <use xlink:href="#DejaVuSans-72" x="239.998047"/>
      <use xlink:href="#DejaVuSans-61" x="281.111328"/>
      <use xlink:href="#DejaVuSans-63" x="342.390625"/>
      <use xlink:href="#DejaVuSans-79" x="397.371094"/>
     </g>
    </g>
   </g>
   <g id="patch_3">
    <path d="M 90.964091 357.59 
L 100.483376 357.59 
L 100.483376 33.449537 
L 90.964091 33.449537 
z
" clip-path="url(#pf3752c77e5)" style="fill: #ff4a70"/>
   </g>
   <g id="patch_4">
    <path d="M 154.425989 357.59 
L 163.945274 357.59 
L 163.945274 33.974833 
L 154.425989 33.974833 
z
" clip-path="url(#pf3752c77e5)" style="fill: #ff4a70"/>
   </g>
   <g id="patch_5">
    <path d="M 217.887888 357.59 
L 227.407172 357.59 
L 227.407172 34.237481 
L 217.887888 34.237481 
z
" clip-path="url(#pf3752c77e5)" style="fill: #ff4a70"/>
   </g>
   <g id="patch_6">
    <path d="M 281.349786 357.59 
L 290.869071 357.59 
L 290.869071 34.762777 
L 281.349786 34.762777 
z
" clip-path="url(#pf3752c77e5)" style="fill: #ff4a70"/>
   </g>
   <g id="patch_7">
    <path d="M 344.811684 357.59 
L 354.330969 357.59 
L 354.330969 35.288073 
L 344.811684 35.288073 
z
" clip-path="url(#pf3752c77e5)" style="fill: #ff4a70"/>
   </g>
   <g id="patch_8">
    <path d="M 408.273583 357.59 
L 417.792868 357.59 
L 417.792868 37.881722 
L 408.273583 37.881722 
z
" clip-path="url(#pf3752c77e5)" style="fill: #ff4a70"/>
   </g>
   <g id="patch_9">
    <path d="M 471.735481 357.59 
L 481.254766 357.59 
L 481.254766 38.407018 
L 471.735481 38.407018 
z
" clip-path="url(#pf3752c77e5)" style="fill: #ff4a70"/>
   </g>
   <g id="patch_10">
    <path d="M 535.19738 357.59 
L 544.716664 357.59 
L 544.716664 38.669666 
L 535.19738 38.669666 
z
" clip-path="url(#pf3752c77e5)" style="fill: #ff4a70"/>
   </g>
   <g id="patch_11">
    <path d="M 598.659278 357.59 
L 608.178563 357.59 
L 608.178563 39.194962 
L 598.659278 39.194962 
z
" clip-path="url(#pf3752c77e5)" style="fill: #ff4a70"/>
   </g>
   <g id="patch_12">
    <path d="M 662.121176 357.59 
L 671.640461 357.59 
L 671.640461 40.475371 
L 662.121176 40.475371 
z
" clip-path="url(#pf3752c77e5)" style="fill: #ff4a70"/>
   </g>
   <g id="patch_13">
    <path d="M 725.583075 357.59 
L 735.10236 357.59 
L 735.10236 43.627147 
L 725.583075 43.627147 
z
" clip-path="url(#pf3752c77e5)" style="fill: #ff4a70"/>
   </g>
   <g id="patch_14">
    <path d="M 789.044973 357.59 
L 798.564258 357.59 
L 798.564258 46.746092 
L 789.044973 46.746092 
z
" clip-path="url(#pf3752c77e5)" style="fill: #ff4a70"/>
   </g>
   <g id="patch_15">
    <path d="M 852.506872 357.59 
L 862.026156 357.59 
L 862.026156 49.602389 
L 852.506872 49.602389 
z
" clip-path="url(#pf3752c77e5)" style="fill: #ff4a70"/>
   </g>
   <g id="patch_16">
    <path d="M 915.96877 357.59 
L 925.488055 357.59 
L 925.488055 57.416167 
L 915.96877 57.416167 
z
" clip-path="url(#pf3752c77e5)" style="fill: #ff4a70"/>
   </g>
   <g id="patch_17">
    <path d="M 90.964091 357.59 
L 100.483376 357.59 
L 100.483376 82.367727 
L 90.964091 82.367727 
z
" clip-path="url(#pf3752c77e5)" style="fill: #e40139"/>
   </g>
   <g id="patch_18">
    <path d="M 154.425989 357.59 
L 163.945274 357.59 
L 163.945274 78.723486 
L 154.425989 78.723486 
z
" clip-path="url(#pf3752c77e5)" style="fill: #e40139"/>
   </g>
   <g id="patch_19">
    <path d="M 217.887888 357.59 
L 227.407172 357.59 
L 227.407172 78.723486 
L 217.887888 78.723486 
z
" clip-path="url(#pf3752c77e5)" style="fill: #e40139"/>
   </g>
   <g id="patch_20">
    <path d="M 281.349786 357.59 
L 290.869071 357.59 
L 290.869071 103.346736 
L 281.349786 103.346736 
z
" clip-path="url(#pf3752c77e5)" style="fill: #e40139"/>
   </g>
   <g id="patch_21">
    <path d="M 344.811684 357.59 
L 354.330969 357.59 
L 354.330969 84.173432 
L 344.811684 84.173432 
z
" clip-path="url(#pf3752c77e5)" style="fill: #e40139"/>
   </g>
   <g id="patch_22">
    <path d="M 408.273583 357.59 
L 417.792868 357.59 
L 417.792868 115.559868 
L 408.273583 115.559868 
z
" clip-path="url(#pf3752c77e5)" style="fill: #e40139"/>
   </g>
   <g id="patch_23">
    <path d="M 471.735481 357.59 
L 481.254766 357.59 
L 481.254766 116.085164 
L 471.735481 116.085164 
z
" clip-path="url(#pf3752c77e5)" style="fill: #e40139"/>
   </g>
   <g id="patch_24">
    <path d="M 535.19738 357.59 
L 544.716664 357.59 
L 544.716664 118.842968 
L 535.19738 118.842968 
z
" clip-path="url(#pf3752c77e5)" style="fill: #e40139"/>
   </g>
   <g id="patch_25">
    <path d="M 598.659278 357.59 
L 608.178563 357.59 
L 608.178563 123.767618 
L 598.659278 123.767618 
z
" clip-path="url(#pf3752c77e5)" style="fill: #e40139"/>
   </g>
   <g id="patch_26">
    <path d="M 662.121176 357.59 
L 671.640461 357.59 
L 671.640461 122.487209 
L 662.121176 122.487209 
z
" clip-path="url(#pf3752c77e5)" style="fill: #e40139"/>
   </g>
   <g id="patch_27">
    <path d="M 725.583075 357.59 
L 735.10236 357.59 
L 735.10236 122.290223 
L 725.583075 122.290223 
z
" clip-path="url(#pf3752c77e5)" style="fill: #e40139"/>
   </g>
   <g id="patch_28">
    <path d="M 789.044973 357.59 
L 798.564258 357.59 
L 798.564258 112.276768 
L 789.044973 112.276768 
z
" clip-path="url(#pf3752c77e5)" style="fill: #e40139"/>
   </g>
   <g id="patch_29">
    <path d="M 852.506872 357.59 
L 862.026156 357.59 
L 862.026156 119.926391 
L 852.506872 119.926391 
z
" clip-path="url(#pf3752c77e5)" style="fill: #e40139"/>
   </g>
   <g id="patch_30">
    <path d="M 915.96877 357.59 
L 925.488055 357.59 
L 925.488055 129.217564 
L 915.96877 129.217564 
z
" clip-path="url(#pf3752c77e5)" style="fill: #e40139"/>
   </g>
   <g id="patch_31">
    <path d="M 100.483376 357.59 
L 110.00266 357.59 
L 110.00266 40.738019 
L 100.483376 40.738019 
z
" clip-path="url(#pf3752c77e5)" style="fill: #b6002e"/>
   </g>
   <g id="patch_32">
    <path d="M 163.945274 357.59 
L 173.464559 357.59 
L 173.464559 41.788611 
L 163.945274 41.788611 
z
" clip-path="url(#pf3752c77e5)" style="fill: #b6002e"/>
   </g>
   <g id="patch_33">
    <path d="M 227.407172 357.59 
L 236.926457 357.59 
L 236.926457 58.729407 
L 227.407172 58.729407 
z
" clip-path="url(#pf3752c77e5)" style="fill: #b6002e"/>
   </g>
   <g id="patch_34">
    <path d="M 290.869071 357.59 
L 300.388356 357.59 
L 300.388356 106.990977 
L 290.869071 106.990977 
z
" clip-path="url(#pf3752c77e5)" style="fill: #b6002e"/>
   </g>
   <g id="patch_35">
    <path d="M 354.330969 357.59 
L 363.850254 357.59 
L 363.850254 55.610462 
L 354.330969 55.610462 
z
" clip-path="url(#pf3752c77e5)" style="fill: #b6002e"/>
   </g>
   <g id="patch_36">
    <path d="M 417.792868 357.59 
L 427.312152 357.59 
L 427.312152 67.396791 
L 417.792868 67.396791 
z
" clip-path="url(#pf3752c77e5)" style="fill: #b6002e"/>
   </g>
   <g id="patch_37">
    <path d="M 481.254766 357.59 
L 490.774051 357.59 
L 490.774051 95.729944 
L 481.254766 95.729944 
z
" clip-path="url(#pf3752c77e5)" style="fill: #b6002e"/>
   </g>
   <g id="patch_38">
    <path d="M 544.716664 357.59 
L 554.235949 357.59 
L 554.235949 94.745014 
L 544.716664 94.745014 
z
" clip-path="url(#pf3752c77e5)" style="fill: #b6002e"/>
   </g>
   <g id="patch_39">
    <path d="M 608.178563 357.59 
L 617.697848 357.59 
L 617.697848 80.857501 
L 608.178563 80.857501 
z
" clip-path="url(#pf3752c77e5)" style="fill: #b6002e"/>
   </g>
   <g id="patch_40">
    <path d="M 671.640461 357.59 
L 681.159746 357.59 
L 681.159746 117.004432 
L 671.640461 117.004432 
z
" clip-path="url(#pf3752c77e5)" style="fill: #b6002e"/>
   </g>
   <g id="patch_41">
    <path d="M 735.10236 357.59 
L 744.621644 357.59 
L 744.621644 88.3758 
L 735.10236 88.3758 
z
" clip-path="url(#pf3752c77e5)" style="fill: #b6002e"/>
   </g>
   <g id="patch_42">
    <path d="M 798.564258 357.59 
L 808.083543 357.59 
L 808.083543 79.445768 
L 798.564258 79.445768 
z
" clip-path="url(#pf3752c77e5)" style="fill: #b6002e"/>
   </g>
   <g id="patch_43">
    <path d="M 862.026156 357.59 
L 871.545441 357.59 
L 871.545441 73.962991 
L 862.026156 73.962991 
z
" clip-path="url(#pf3752c77e5)" style="fill: #b6002e"/>
   </g>
   <g id="patch_44">
    <path d="M 925.488055 357.59 
L 935.00734 357.59 
L 935.00734 92.020041 
L 925.488055 92.020041 
z
" clip-path="url(#pf3752c77e5)" style="fill: #b6002e"/>
   </g>
   <g id="patch_45">
    <path d="M 100.483376 357.59 
L 110.00266 357.59 
L 110.00266 131.614227 
L 100.483376 131.614227 
z
" clip-path="url(#pf3752c77e5)" style="fill: #ff7a95"/>
   </g>
   <g id="patch_46">
    <path d="M 163.945274 357.59 
L 173.464559 357.59 
L 173.464559 132.500664 
L 163.945274 132.500664 
z
" clip-path="url(#pf3752c77e5)" style="fill: #ff7a95"/>
   </g>
   <g id="patch_47">
    <path d="M 227.407172 357.59 
L 236.926457 357.59 
L 236.926457 144.746627 
L 227.407172 144.746627 
z
" clip-path="url(#pf3752c77e5)" style="fill: #ff7a95"/>
   </g>
   <g id="patch_48">
    <path d="M 290.869071 357.59 
L 300.388356 357.59 
L 300.388356 172.817132 
L 290.869071 172.817132 
z
" clip-path="url(#pf3752c77e5)" style="fill: #ff7a95"/>
   </g>
   <g id="patch_49">
    <path d="M 354.330969 357.59 
L 363.850254 357.59 
L 363.850254 149.474291 
L 354.330969 149.474291 
z
" clip-path="url(#pf3752c77e5)" style="fill: #ff7a95"/>
   </g>
   <g id="patch_50">
    <path d="M 417.792868 357.59 
L 427.312152 357.59 
L 427.312152 164.445227 
L 417.792868 164.445227 
z
" clip-path="url(#pf3752c77e5)" style="fill: #ff7a95"/>
   </g>
   <g id="patch_51">
    <path d="M 481.254766 357.59 
L 490.774051 357.59 
L 490.774051 169.534032 
L 481.254766 169.534032 
z
" clip-path="url(#pf3752c77e5)" style="fill: #ff7a95"/>
   </g>
   <g id="patch_52">
    <path d="M 544.716664 357.59 
L 554.235949 357.59 
L 554.235949 166.250932 
L 544.716664 166.250932 
z
" clip-path="url(#pf3752c77e5)" style="fill: #ff7a95"/>
   </g>
   <g id="patch_53">
    <path d="M 608.178563 357.59 
L 617.697848 357.59 
L 617.697848 173.539414 
L 608.178563 173.539414 
z
" clip-path="url(#pf3752c77e5)" style="fill: #ff7a95"/>
   </g>
   <g id="patch_54">
    <path d="M 671.640461 357.59 
L 681.159746 357.59 
L 681.159746 180.3026 
L 671.640461 180.3026 
z
" clip-path="url(#pf3752c77e5)" style="fill: #ff7a95"/>
   </g>
   <g id="patch_55">
    <path d="M 735.10236 357.59 
L 744.621644 357.59 
L 744.621644 160.242859 
L 735.10236 160.242859 
z
" clip-path="url(#pf3752c77e5)" style="fill: #ff7a95"/>
   </g>
   <g id="patch_56">
    <path d="M 798.564258 357.59 
L 808.083543 357.59 
L 808.083543 166.612073 
L 798.564258 166.612073 
z
" clip-path="url(#pf3752c77e5)" style="fill: #ff7a95"/>
   </g>
   <g id="patch_57">
    <path d="M 862.026156 357.59 
L 871.545441 357.59 
L 871.545441 161.326282 
L 862.026156 161.326282 
z
" clip-path="url(#pf3752c77e5)" style="fill: #ff7a95"/>
   </g>
   <g id="patch_58">
    <path d="M 925.488055 357.59 
L 935.00734 357.59 
L 935.00734 167.728327 
L 925.488055 167.728327 
z
" clip-path="url(#pf3752c77e5)" style="fill: #ff7a95"/>
   </g>
   <g id="patch_59">
    <path d="M 110.00266 357.59 
L 119.521945 357.59 
L 119.521945 42.839203 
L 110.00266 42.839203 
z
" clip-path="url(#pf3752c77e5)" style="fill: #8c0024"/>
   </g>
   <g id="patch_60">
    <path d="M 173.464559 357.59 
L 182.983844 357.59 
L 182.983844 45.6955 
L 173.464559 45.6955 
z
" clip-path="url(#pf3752c77e5)" style="fill: #8c0024"/>
   </g>
   <g id="patch_61">
    <path d="M 236.926457 357.59 
L 246.445742 357.59 
L 246.445742 76.687964 
L 236.926457 76.687964 
z
" clip-path="url(#pf3752c77e5)" style="fill: #8c0024"/>
   </g>
   <g id="patch_62">
    <path d="M 300.388356 357.59 
L 309.90764 357.59 
L 309.90764 63.030268 
L 300.388356 63.030268 
z
" clip-path="url(#pf3752c77e5)" style="fill: #8c0024"/>
   </g>
   <g id="patch_63">
    <path d="M 363.850254 357.59 
L 373.369539 357.59 
L 373.369539 72.781075 
L 363.850254 72.781075 
z
" clip-path="url(#pf3752c77e5)" style="fill: #8c0024"/>
   </g>
   <g id="patch_64">
    <path d="M 427.312152 357.59 
L 436.831437 357.59 
L 436.831437 63.75255 
L 427.312152 63.75255 
z
" clip-path="url(#pf3752c77e5)" style="fill: #8c0024"/>
   </g>
   <g id="patch_65">
    <path d="M 490.774051 357.59 
L 500.293336 357.59 
L 500.293336 80.594853 
L 490.774051 80.594853 
z
" clip-path="url(#pf3752c77e5)" style="fill: #8c0024"/>
   </g>
   <g id="patch_66">
    <path d="M 554.235949 357.59 
L 563.755234 357.59 
L 563.755234 75.965682 
L 554.235949 75.965682 
z
" clip-path="url(#pf3752c77e5)" style="fill: #8c0024"/>
   </g>
   <g id="patch_67">
    <path d="M 617.697848 357.59 
L 627.217132 357.59 
L 627.217132 75.932851 
L 617.697848 75.932851 
z
" clip-path="url(#pf3752c77e5)" style="fill: #8c0024"/>
   </g>
   <g id="patch_68">
    <path d="M 681.159746 357.59 
L 690.679031 357.59 
L 690.679031 74.685273 
L 681.159746 74.685273 
z
" clip-path="url(#pf3752c77e5)" style="fill: #8c0024"/>
   </g>
   <g id="patch_69">
    <path d="M 744.621644 357.59 
L 754.140929 357.59 
L 754.140929 70.121764 
L 744.621644 70.121764 
z
" clip-path="url(#pf3752c77e5)" style="fill: #8c0024"/>
   </g>
   <g id="patch_70">
    <path d="M 808.083543 357.59 
L 817.602828 357.59 
L 817.602828 73.60185 
L 808.083543 73.60185 
z
" clip-path="url(#pf3752c77e5)" style="fill: #8c0024"/>
   </g>
   <g id="patch_71">
    <path d="M 871.545441 357.59 
L 881.064726 357.59 
L 881.064726 59.911323 
L 871.545441 59.911323 
z
" clip-path="url(#pf3752c77e5)" style="fill: #8c0024"/>
   </g>
   <g id="patch_72">
    <path d="M 935.00734 357.59 
L 944.526624 357.59 
L 944.526624 83.090009 
L 935.00734 83.090009 
z
" clip-path="url(#pf3752c77e5)" style="fill: #8c0024"/>
   </g>
   <g id="patch_73">
    <path d="M 110.00266 357.59 
L 119.521945 357.59 
L 119.521945 144.385486 
L 110.00266 144.385486 
z
" clip-path="url(#pf3752c77e5)" style="fill: #ff9db2"/>
   </g>
   <g id="patch_74">
    <path d="M 173.464559 357.59 
L 182.983844 357.59 
L 182.983844 147.832741 
L 173.464559 147.832741 
z
" clip-path="url(#pf3752c77e5)" style="fill: #ff9db2"/>
   </g>
   <g id="patch_75">
    <path d="M 236.926457 357.59 
L 246.445742 357.59 
L 246.445742 195.273536 
L 236.926457 195.273536 
z
" clip-path="url(#pf3752c77e5)" style="fill: #ff9db2"/>
   </g>
   <g id="patch_76">
    <path d="M 300.388356 357.59 
L 309.90764 357.59 
L 309.90764 147.110459 
L 300.388356 147.110459 
z
" clip-path="url(#pf3752c77e5)" style="fill: #ff9db2"/>
   </g>
   <g id="patch_77">
    <path d="M 363.850254 357.59 
L 373.369539 357.59 
L 373.369539 200.723482 
L 363.850254 200.723482 
z
" clip-path="url(#pf3752c77e5)" style="fill: #ff9db2"/>
   </g>
   <g id="patch_78">
    <path d="M 427.312152 357.59 
L 436.831437 357.59 
L 436.831437 159.520577 
L 427.312152 159.520577 
z
" clip-path="url(#pf3752c77e5)" style="fill: #ff9db2"/>
   </g>
   <g id="patch_79">
    <path d="M 490.774051 357.59 
L 500.293336 357.59 
L 500.293336 176.100232 
L 490.774051 176.100232 
z
" clip-path="url(#pf3752c77e5)" style="fill: #ff9db2"/>
   </g>
   <g id="patch_80">
    <path d="M 554.235949 357.59 
L 563.755234 357.59 
L 563.755234 167.1702 
L 554.235949 167.1702 
z
" clip-path="url(#pf3752c77e5)" style="fill: #ff9db2"/>
   </g>
   <g id="patch_81">
    <path d="M 617.697848 357.59 
L 627.217132 357.59 
L 627.217132 173.375259 
L 617.697848 173.375259 
z
" clip-path="url(#pf3752c77e5)" style="fill: #ff9db2"/>
   </g>
   <g id="patch_82">
    <path d="M 681.159746 357.59 
L 690.679031 357.59 
L 690.679031 168.089468 
L 681.159746 168.089468 
z
" clip-path="url(#pf3752c77e5)" style="fill: #ff9db2"/>
   </g>
   <g id="patch_83">
    <path d="M 744.621644 357.59 
L 754.140929 357.59 
L 754.140929 152.035109 
L 744.621644 152.035109 
z
" clip-path="url(#pf3752c77e5)" style="fill: #ff9db2"/>
   </g>
   <g id="patch_84">
    <path d="M 808.083543 357.59 
L 817.602828 357.59 
L 817.602828 155.876336 
L 808.083543 155.876336 
z
" clip-path="url(#pf3752c77e5)" style="fill: #ff9db2"/>
   </g>
   <g id="patch_85">
    <path d="M 871.545441 357.59 
L 881.064726 357.59 
L 881.064726 143.269232 
L 871.545441 143.269232 
z
" clip-path="url(#pf3752c77e5)" style="fill: #ff9db2"/>
   </g>
   <g id="patch_86">
    <path d="M 935.00734 357.59 
L 944.526624 357.59 
L 944.526624 161.687423 
L 935.00734 161.687423 
z
" clip-path="url(#pf3752c77e5)" style="fill: #ff9db2"/>
   </g>
   <g id="patch_87">
    <path d="M 119.521945 357.59 
L 129.04123 357.59 
L 129.04123 46.483444 
L 119.521945 46.483444 
z
" clip-path="url(#pf3752c77e5)" style="fill: #600019"/>
   </g>
   <g id="patch_88">
    <path d="M 182.983844 357.59 
L 192.503128 357.59 
L 192.503128 51.178277 
L 182.983844 51.178277 
z
" clip-path="url(#pf3752c77e5)" style="fill: #600019"/>
   </g>
   <g id="patch_89">
    <path d="M 246.445742 357.59 
L 255.965027 357.59 
L 255.965027 119.959222 
L 246.445742 119.959222 
z
" clip-path="url(#pf3752c77e5)" style="fill: #600019"/>
   </g>
   <g id="patch_90">
    <path d="M 309.90764 357.59 
L 319.426925 357.59 
L 319.426925 110.996359 
L 309.90764 110.996359 
z
" clip-path="url(#pf3752c77e5)" style="fill: #600019"/>
   </g>
   <g id="patch_91">
    <path d="M 373.369539 357.59 
L 382.888824 357.59 
L 382.888824 105.349427 
L 373.369539 105.349427 
z
" clip-path="url(#pf3752c77e5)" style="fill: #600019"/>
   </g>
   <g id="patch_92">
    <path d="M 436.831437 357.59 
L 446.350722 357.59 
L 446.350722 90.936618 
L 436.831437 90.936618 
z
" clip-path="url(#pf3752c77e5)" style="fill: #600019"/>
   </g>
   <g id="patch_93">
    <path d="M 500.293336 357.59 
L 509.81262 357.59 
L 509.81262 129.08624 
L 500.293336 129.08624 
z
" clip-path="url(#pf3752c77e5)" style="fill: #600019"/>
   </g>
   <g id="patch_94">
    <path d="M 563.755234 357.59 
L 573.274519 357.59 
L 573.274519 65.197114 
L 563.755234 65.197114 
z
" clip-path="url(#pf3752c77e5)" style="fill: #600019"/>
   </g>
   <g id="patch_95">
    <path d="M 627.217132 357.59 
L 636.736417 357.59 
L 636.736417 146.519501 
L 627.217132 146.519501 
z
" clip-path="url(#pf3752c77e5)" style="fill: #600019"/>
   </g>
   <g id="patch_96">
    <path d="M 690.679031 357.59 
L 700.198316 357.59 
L 700.198316 137.6223 
L 690.679031 137.6223 
z
" clip-path="url(#pf3752c77e5)" style="fill: #600019"/>
   </g>
   <g id="patch_97">
    <path d="M 754.140929 357.59 
L 763.660214 357.59 
L 763.660214 112.802064 
L 754.140929 112.802064 
z
" clip-path="url(#pf3752c77e5)" style="fill: #600019"/>
   </g>
   <g id="patch_98">
    <path d="M 817.602828 357.59 
L 827.122112 357.59 
L 827.122112 158.240168 
L 817.602828 158.240168 
z
" clip-path="url(#pf3752c77e5)" style="fill: #600019"/>
   </g>
   <g id="patch_99">
    <path d="M 881.064726 357.59 
L 890.584011 357.59 
L 890.584011 109.157823 
L 881.064726 109.157823 
z
" clip-path="url(#pf3752c77e5)" style="fill: #600019"/>
   </g>
   <g id="patch_100">
    <path d="M 944.526624 357.59 
L 954.045909 357.59 
L 954.045909 117.201418 
L 944.526624 117.201418 
z
" clip-path="url(#pf3752c77e5)" style="fill: #600019"/>
   </g>
   <g id="patch_101">
    <path d="M 119.521945 357.59 
L 129.04123 357.59 
L 129.04123 135.619609 
L 119.521945 135.619609 
z
" clip-path="url(#pf3752c77e5)" style="fill: #ffc4d0"/>
   </g>
   <g id="patch_102">
    <path d="M 182.983844 357.59 
L 192.503128 357.59 
L 192.503128 135.98075 
L 182.983844 135.98075 
z
" clip-path="url(#pf3752c77e5)" style="fill: #ffc4d0"/>
   </g>
   <g id="patch_103">
    <path d="M 246.445742 357.59 
L 255.965027 357.59 
L 255.965027 181.386023 
L 246.445742 181.386023 
z
" clip-path="url(#pf3752c77e5)" style="fill: #ffc4d0"/>
   </g>
   <g id="patch_104">
    <path d="M 309.90764 357.59 
L 319.426925 357.59 
L 319.426925 134.536186 
L 309.90764 134.536186 
z
" clip-path="url(#pf3752c77e5)" style="fill: #ffc4d0"/>
   </g>
   <g id="patch_105">
    <path d="M 373.369539 357.59 
L 382.888824 357.59 
L 382.888824 182.863418 
L 373.369539 182.863418 
z
" clip-path="url(#pf3752c77e5)" style="fill: #ffc4d0"/>
   </g>
   <g id="patch_106">
    <path d="M 436.831437 357.59 
L 446.350722 357.59 
L 446.350722 142.349964 
L 436.831437 142.349964 
z
" clip-path="url(#pf3752c77e5)" style="fill: #ffc4d0"/>
   </g>
   <g id="patch_107">
    <path d="M 500.293336 357.59 
L 509.81262 357.59 
L 509.81262 165.725636 
L 500.293336 165.725636 
z
" clip-path="url(#pf3752c77e5)" style="fill: #ffc4d0"/>
   </g>
   <g id="patch_108">
    <path d="M 563.755234 357.59 
L 573.274519 357.59 
L 573.274519 123.570632 
L 563.755234 123.570632 
z
" clip-path="url(#pf3752c77e5)" style="fill: #ffc4d0"/>
   </g>
   <g id="patch_109">
    <path d="M 627.217132 357.59 
L 636.736417 357.59 
L 636.736417 177.741782 
L 627.217132 177.741782 
z
" clip-path="url(#pf3752c77e5)" style="fill: #ffc4d0"/>
   </g>
   <g id="patch_110">
    <path d="M 690.679031 357.59 
L 700.198316 357.59 
L 700.198316 171.372568 
L 690.679031 171.372568 
z
" clip-path="url(#pf3752c77e5)" style="fill: #ffc4d0"/>
   </g>
   <g id="patch_111">
    <path d="M 754.140929 357.59 
L 763.660214 357.59 
L 763.660214 145.271923 
L 754.140929 145.271923 
z
" clip-path="url(#pf3752c77e5)" style="fill: #ffc4d0"/>
   </g>
   <g id="patch_112">
    <path d="M 817.602828 357.59 
L 827.122112 357.59 
L 827.122112 178.299909 
L 817.602828 178.299909 
z
" clip-path="url(#pf3752c77e5)" style="fill: #ffc4d0"/>
   </g>
   <g id="patch_113">
    <path d="M 881.064726 357.59 
L 890.584011 357.59 
L 890.584011 148.029727 
L 881.064726 148.029727 
z
" clip-path="url(#pf3752c77e5)" style="fill: #ffc4d0"/>
   </g>
   <g id="patch_114">
    <path d="M 944.526624 357.59 
L 954.045909 357.59 
L 954.045909 161.162127 
L 944.526624 161.162127 
z
" clip-path="url(#pf3752c77e5)" style="fill: #ffc4d0"/>
   </g>
   <g id="patch_115">
    <path d="M 47.81 357.59 
L 47.81 29.28 
" style="fill: none; stroke: #000000; stroke-width: 0.8; stroke-linejoin: miter; stroke-linecap: square"/>
   </g>
   <g id="patch_116">
    <path d="M 997.2 357.59 
L 997.2 29.28 
" style="fill: none; stroke: #000000; stroke-width: 0.8; stroke-linejoin: miter; stroke-linecap: square"/>
   </g>
   <g id="patch_117">
    <path d="M 47.81 357.59 
L 997.2 357.59 
" style="fill: none; stroke: #000000; stroke-width: 0.8; stroke-linejoin: miter; stroke-linecap: square"/>
   </g>
   <g id="patch_118">
    <path d="M 47.81 29.28 
L 997.2 29.28 
" style="fill: none; stroke: #000000; stroke-width: 0.8; stroke-linejoin: miter; stroke-linecap: square"/>
   </g>
   <g id="text_27">
    <!-- Accuracy  Known vs. Unknown (Normal &amp; verndert) -->
    <g transform="translate(308.00625 23.28) scale(0.16 -0.16)">
     <defs>
      <path id="DejaVuSans-2013" d="M 313 1978 
L 2888 1978 
L 2888 1528 
L 313 1528 
L 313 1978 
z
" transform="scale(0.015625)"/>
      <path id="DejaVuSans-4b" d="M 628 4666 
L 1259 4666 
L 1259 2694 
L 3353 4666 
L 4166 4666 
L 1850 2491 
L 4331 0 
L 3500 0 
L 1259 2247 
L 1259 0 
L 628 0 
L 628 4666 
z
" transform="scale(0.015625)"/>
      <path id="DejaVuSans-55" d="M 556 4666 
L 1191 4666 
L 1191 1831 
Q 1191 1081 1462 751 
Q 1734 422 2344 422 
Q 2950 422 3222 751 
Q 3494 1081 3494 1831 
L 3494 4666 
L 4128 4666 
L 4128 1753 
Q 4128 841 3676 375 
Q 3225 -91 2344 -91 
Q 1459 -91 1007 375 
Q 556 841 556 1753 
L 556 4666 
z
" transform="scale(0.015625)"/>
      <path id="DejaVuSans-28" d="M 1984 4856 
Q 1566 4138 1362 3434 
Q 1159 2731 1159 2009 
Q 1159 1288 1364 580 
Q 1569 -128 1984 -844 
L 1484 -844 
Q 1016 -109 783 600 
Q 550 1309 550 2009 
Q 550 2706 781 3412 
Q 1013 4119 1484 4856 
L 1984 4856 
z
" transform="scale(0.015625)"/>
      <path id="DejaVuSans-26" d="M 1556 2509 
Q 1272 2256 1139 2004 
Q 1006 1753 1006 1478 
Q 1006 1022 1337 719 
Q 1669 416 2169 416 
Q 2466 416 2725 514 
Q 2984 613 3213 813 
L 1556 2509 
z
M 1997 2859 
L 3584 1234 
Q 3769 1513 3872 1830 
Q 3975 2147 3994 2503 
L 4575 2503 
Q 4538 2091 4375 1687 
Q 4213 1284 3922 891 
L 4794 0 
L 4006 0 
L 3559 459 
Q 3234 181 2878 45 
Q 2522 -91 2113 -91 
Q 1359 -91 881 339 
Q 403 769 403 1441 
Q 403 1841 612 2192 
Q 822 2544 1241 2853 
Q 1091 3050 1012 3245 
Q 934 3441 934 3628 
Q 934 4134 1281 4442 
Q 1628 4750 2203 4750 
Q 2463 4750 2720 4694 
Q 2978 4638 3244 4525 
L 3244 3956 
Q 2972 4103 2725 4179 
Q 2478 4256 2266 4256 
Q 1938 4256 1733 4082 
Q 1528 3909 1528 3634 
Q 1528 3475 1620 3314 
Q 1713 3153 1997 2859 
z
" transform="scale(0.015625)"/>
      <path id="DejaVuSans-e4" d="M 2194 1759 
Q 1497 1759 1228 1600 
Q 959 1441 959 1056 
Q 959 750 1161 570 
Q 1363 391 1709 391 
Q 2188 391 2477 730 
Q 2766 1069 2766 1631 
L 2766 1759 
L 2194 1759 
z
M 3341 1997 
L 3341 0 
L 2766 0 
L 2766 531 
Q 2569 213 2275 61 
Q 1981 -91 1556 -91 
Q 1019 -91 701 211 
Q 384 513 384 1019 
Q 384 1609 779 1909 
Q 1175 2209 1959 2209 
L 2766 2209 
L 2766 2266 
Q 2766 2663 2505 2880 
Q 2244 3097 1772 3097 
Q 1472 3097 1187 3025 
Q 903 2953 641 2809 
L 641 3341 
Q 956 3463 1253 3523 
Q 1550 3584 1831 3584 
Q 2591 3584 2966 3190 
Q 3341 2797 3341 1997 
z
M 2150 4850 
L 2784 4850 
L 2784 4219 
L 2150 4219 
L 2150 4850 
z
M 928 4850 
L 1562 4850 
L 1562 4219 
L 928 4219 
L 928 4850 
z
" transform="scale(0.015625)"/>
      <path id="DejaVuSans-29" d="M 513 4856 
L 1013 4856 
Q 1481 4119 1714 3412 
Q 1947 2706 1947 2009 
Q 1947 1309 1714 600 
Q 1481 -109 1013 -844 
L 513 -844 
Q 928 -128 1133 580 
Q 1338 1288 1338 2009 
Q 1338 2731 1133 3434 
Q 928 4138 513 4856 
z
" transform="scale(0.015625)"/>
     </defs>
     <use xlink:href="#DejaVuSans-41"/>
     <use xlink:href="#DejaVuSans-63" x="66.658203"/>
     <use xlink:href="#DejaVuSans-63" x="121.638672"/>
     <use xlink:href="#DejaVuSans-75" x="176.619141"/>
     <use xlink:href="#DejaVuSans-72" x="239.998047"/>
     <use xlink:href="#DejaVuSans-61" x="281.111328"/>
     <use xlink:href="#DejaVuSans-63" x="342.390625"/>
     <use xlink:href="#DejaVuSans-79" x="397.371094"/>
     <use xlink:href="#DejaVuSans-20" x="456.550781"/>
     <use xlink:href="#DejaVuSans-2013" x="488.337891"/>
     <use xlink:href="#DejaVuSans-20" x="538.337891"/>
     <use xlink:href="#DejaVuSans-4b" x="570.125"/>
     <use xlink:href="#DejaVuSans-6e" x="635.701172"/>
     <use xlink:href="#DejaVuSans-6f" x="699.080078"/>
     <use xlink:href="#DejaVuSans-77" x="760.261719"/>
     <use xlink:href="#DejaVuSans-6e" x="842.048828"/>
     <use xlink:href="#DejaVuSans-20" x="905.427734"/>
     <use xlink:href="#DejaVuSans-76" x="937.214844"/>
     <use xlink:href="#DejaVuSans-73" x="996.394531"/>
     <use xlink:href="#DejaVuSans-2e" x="1048.494141"/>
     <use xlink:href="#DejaVuSans-20" x="1080.28125"/>
     <use xlink:href="#DejaVuSans-55" x="1112.068359"/>
     <use xlink:href="#DejaVuSans-6e" x="1185.261719"/>
     <use xlink:href="#DejaVuSans-6b" x="1248.640625"/>
     <use xlink:href="#DejaVuSans-6e" x="1306.550781"/>
     <use xlink:href="#DejaVuSans-6f" x="1369.929688"/>
     <use xlink:href="#DejaVuSans-77" x="1431.111328"/>
     <use xlink:href="#DejaVuSans-6e" x="1512.898438"/>
     <use xlink:href="#DejaVuSans-20" x="1576.277344"/>
     <use xlink:href="#DejaVuSans-28" x="1608.064453"/>
     <use xlink:href="#DejaVuSans-4e" x="1647.078125"/>
     <use xlink:href="#DejaVuSans-6f" x="1721.882812"/>
     <use xlink:href="#DejaVuSans-72" x="1783.064453"/>
     <use xlink:href="#DejaVuSans-6d" x="1822.427734"/>
     <use xlink:href="#DejaVuSans-61" x="1919.839844"/>
     <use xlink:href="#DejaVuSans-6c" x="1981.119141"/>
     <use xlink:href="#DejaVuSans-20" x="2008.902344"/>
     <use xlink:href="#DejaVuSans-26" x="2040.689453"/>
     <use xlink:href="#DejaVuSans-20" x="2118.667969"/>
     <use xlink:href="#DejaVuSans-76" x="2150.455078"/>
     <use xlink:href="#DejaVuSans-65" x="2209.634766"/>
     <use xlink:href="#DejaVuSans-72" x="2271.158203"/>
     <use xlink:href="#DejaVuSans-e4" x="2312.271484"/>
     <use xlink:href="#DejaVuSans-6e" x="2373.550781"/>
     <use xlink:href="#DejaVuSans-64" x="2436.929688"/>
     <use xlink:href="#DejaVuSans-65" x="2500.40625"/>
     <use xlink:href="#DejaVuSans-72" x="2561.929688"/>
     <use xlink:href="#DejaVuSans-74" x="2603.042969"/>
     <use xlink:href="#DejaVuSans-29" x="2642.251953"/>
    </g>
   </g>
   <g id="legend_1">
    <g id="patch_119">
     <path d="M 728.245313 352.59 
L 990.2 352.59 
Q 992.2 352.59 992.2 350.59 
L 992.2 292.8775 
Q 992.2 290.8775 990.2 290.8775 
L 728.245313 290.8775 
Q 726.245313 290.8775 726.245313 292.8775 
L 726.245313 350.59 
Q 726.245313 352.59 728.245313 352.59 
z
" style="fill: #ffffff; opacity: 0.8; stroke: #cccccc; stroke-linejoin: miter"/>
    </g>
    <g id="patch_120">
     <path d="M 730.245313 302.475937 
L 750.245313 302.475937 
L 750.245313 295.475937 
L 730.245313 295.475937 
z
" style="fill: #ff4a70"/>
    </g>
    <g id="text_28">
     <!-- Known (normal) -->
     <g transform="translate(758.245313 302.475937) scale(0.1 -0.1)">
      <use xlink:href="#DejaVuSans-4b"/>
      <use xlink:href="#DejaVuSans-6e" x="65.576172"/>
      <use xlink:href="#DejaVuSans-6f" x="128.955078"/>
      <use xlink:href="#DejaVuSans-77" x="190.136719"/>
      <use xlink:href="#DejaVuSans-6e" x="271.923828"/>
      <use xlink:href="#DejaVuSans-20" x="335.302734"/>
      <use xlink:href="#DejaVuSans-28" x="367.089844"/>
      <use xlink:href="#DejaVuSans-6e" x="406.103516"/>
      <use xlink:href="#DejaVuSans-6f" x="469.482422"/>
      <use xlink:href="#DejaVuSans-72" x="530.664062"/>
      <use xlink:href="#DejaVuSans-6d" x="570.027344"/>
      <use xlink:href="#DejaVuSans-61" x="667.439453"/>
      <use xlink:href="#DejaVuSans-6c" x="728.71875"/>
      <use xlink:href="#DejaVuSans-29" x="756.501953"/>
     </g>
    </g>
    <g id="patch_121">
     <path d="M 730.245313 317.154063 
L 750.245313 317.154063 
L 750.245313 310.154063 
L 730.245313 310.154063 
z
" style="fill: #e40139"/>
    </g>
    <g id="text_29">
     <!-- Unknown (normal) -->
     <g transform="translate(758.245313 317.154063) scale(0.1 -0.1)">
      <use xlink:href="#DejaVuSans-55"/>
      <use xlink:href="#DejaVuSans-6e" x="73.193359"/>
      <use xlink:href="#DejaVuSans-6b" x="136.572266"/>
      <use xlink:href="#DejaVuSans-6e" x="194.482422"/>
      <use xlink:href="#DejaVuSans-6f" x="257.861328"/>
      <use xlink:href="#DejaVuSans-77" x="319.042969"/>
      <use xlink:href="#DejaVuSans-6e" x="400.830078"/>
      <use xlink:href="#DejaVuSans-20" x="464.208984"/>
      <use xlink:href="#DejaVuSans-28" x="495.996094"/>
      <use xlink:href="#DejaVuSans-6e" x="535.009766"/>
      <use xlink:href="#DejaVuSans-6f" x="598.388672"/>
      <use xlink:href="#DejaVuSans-72" x="659.570312"/>
      <use xlink:href="#DejaVuSans-6d" x="698.933594"/>
      <use xlink:href="#DejaVuSans-61" x="796.345703"/>
      <use xlink:href="#DejaVuSans-6c" x="857.625"/>
      <use xlink:href="#DejaVuSans-29" x="885.408203"/>
     </g>
    </g>
    <g id="patch_122">
     <path d="M 730.245313 331.832187 
L 750.245313 331.832187 
L 750.245313 324.832187 
L 730.245313 324.832187 
z
" style="fill: #b6002e"/>
    </g>
    <g id="text_30">
     <!-- Known (jpeg) -->
     <g transform="translate(758.245313 331.832187) scale(0.1 -0.1)">
      <defs>
       <path id="DejaVuSans-6a" d="M 603 3500 
L 1178 3500 
L 1178 -63 
Q 1178 -731 923 -1031 
Q 669 -1331 103 -1331 
L -116 -1331 
L -116 -844 
L 38 -844 
Q 366 -844 484 -692 
Q 603 -541 603 -63 
L 603 3500 
z
M 603 4863 
L 1178 4863 
L 1178 4134 
L 603 4134 
L 603 4863 
z
" transform="scale(0.015625)"/>
      </defs>
      <use xlink:href="#DejaVuSans-4b"/>
      <use xlink:href="#DejaVuSans-6e" x="65.576172"/>
      <use xlink:href="#DejaVuSans-6f" x="128.955078"/>
      <use xlink:href="#DejaVuSans-77" x="190.136719"/>
      <use xlink:href="#DejaVuSans-6e" x="271.923828"/>
      <use xlink:href="#DejaVuSans-20" x="335.302734"/>
      <use xlink:href="#DejaVuSans-28" x="367.089844"/>
      <use xlink:href="#DejaVuSans-6a" x="406.103516"/>
      <use xlink:href="#DejaVuSans-70" x="433.886719"/>
      <use xlink:href="#DejaVuSans-65" x="497.363281"/>
      <use xlink:href="#DejaVuSans-67" x="558.886719"/>
      <use xlink:href="#DejaVuSans-29" x="622.363281"/>
     </g>
    </g>
    <g id="patch_123">
     <path d="M 730.245313 346.510312 
L 750.245313 346.510312 
L 750.245313 339.510312 
L 730.245313 339.510312 
z
" style="fill: #ff7a95"/>
    </g>
    <g id="text_31">
     <!-- Unknown (jpeg) -->
     <g transform="translate(758.245313 346.510312) scale(0.1 -0.1)">
      <use xlink:href="#DejaVuSans-55"/>
      <use xlink:href="#DejaVuSans-6e" x="73.193359"/>
      <use xlink:href="#DejaVuSans-6b" x="136.572266"/>
      <use xlink:href="#DejaVuSans-6e" x="194.482422"/>
      <use xlink:href="#DejaVuSans-6f" x="257.861328"/>
      <use xlink:href="#DejaVuSans-77" x="319.042969"/>
      <use xlink:href="#DejaVuSans-6e" x="400.830078"/>
      <use xlink:href="#DejaVuSans-20" x="464.208984"/>
      <use xlink:href="#DejaVuSans-28" x="495.996094"/>
      <use xlink:href="#DejaVuSans-6a" x="535.009766"/>
      <use xlink:href="#DejaVuSans-70" x="562.792969"/>
      <use xlink:href="#DejaVuSans-65" x="626.269531"/>
      <use xlink:href="#DejaVuSans-67" x="687.792969"/>
      <use xlink:href="#DejaVuSans-29" x="751.269531"/>
     </g>
    </g>
    <g id="patch_124">
     <path d="M 870.684375 302.475937 
L 890.684375 302.475937 
L 890.684375 295.475937 
L 870.684375 295.475937 
z
" style="fill: #8c0024"/>
    </g>
    <g id="text_32">
     <!-- Known (scaled) -->
     <g transform="translate(898.684375 302.475937) scale(0.1 -0.1)">
      <use xlink:href="#DejaVuSans-4b"/>
      <use xlink:href="#DejaVuSans-6e" x="65.576172"/>
      <use xlink:href="#DejaVuSans-6f" x="128.955078"/>
      <use xlink:href="#DejaVuSans-77" x="190.136719"/>
      <use xlink:href="#DejaVuSans-6e" x="271.923828"/>
      <use xlink:href="#DejaVuSans-20" x="335.302734"/>
      <use xlink:href="#DejaVuSans-28" x="367.089844"/>
      <use xlink:href="#DejaVuSans-73" x="406.103516"/>
      <use xlink:href="#DejaVuSans-63" x="458.203125"/>
      <use xlink:href="#DejaVuSans-61" x="513.183594"/>
      <use xlink:href="#DejaVuSans-6c" x="574.462891"/>
      <use xlink:href="#DejaVuSans-65" x="602.246094"/>
      <use xlink:href="#DejaVuSans-64" x="663.769531"/>
      <use xlink:href="#DejaVuSans-29" x="727.246094"/>
     </g>
    </g>
    <g id="patch_125">
     <path d="M 870.684375 317.154063 
L 890.684375 317.154063 
L 890.684375 310.154063 
L 870.684375 310.154063 
z
" style="fill: #ff9db2"/>
    </g>
    <g id="text_33">
     <!-- Unknown (scaled) -->
     <g transform="translate(898.684375 317.154063) scale(0.1 -0.1)">
      <use xlink:href="#DejaVuSans-55"/>
      <use xlink:href="#DejaVuSans-6e" x="73.193359"/>
      <use xlink:href="#DejaVuSans-6b" x="136.572266"/>
      <use xlink:href="#DejaVuSans-6e" x="194.482422"/>
      <use xlink:href="#DejaVuSans-6f" x="257.861328"/>
      <use xlink:href="#DejaVuSans-77" x="319.042969"/>
      <use xlink:href="#DejaVuSans-6e" x="400.830078"/>
      <use xlink:href="#DejaVuSans-20" x="464.208984"/>
      <use xlink:href="#DejaVuSans-28" x="495.996094"/>
      <use xlink:href="#DejaVuSans-73" x="535.009766"/>
      <use xlink:href="#DejaVuSans-63" x="587.109375"/>
      <use xlink:href="#DejaVuSans-61" x="642.089844"/>
      <use xlink:href="#DejaVuSans-6c" x="703.369141"/>
      <use xlink:href="#DejaVuSans-65" x="731.152344"/>
      <use xlink:href="#DejaVuSans-64" x="792.675781"/>
      <use xlink:href="#DejaVuSans-29" x="856.152344"/>
     </g>
    </g>
    <g id="patch_126">
     <path d="M 870.684375 331.832187 
L 890.684375 331.832187 
L 890.684375 324.832187 
L 870.684375 324.832187 
z
" style="fill: #600019"/>
    </g>
    <g id="text_34">
     <!-- Known (noisy) -->
     <g transform="translate(898.684375 331.832187) scale(0.1 -0.1)">
      <use xlink:href="#DejaVuSans-4b"/>
      <use xlink:href="#DejaVuSans-6e" x="65.576172"/>
      <use xlink:href="#DejaVuSans-6f" x="128.955078"/>
      <use xlink:href="#DejaVuSans-77" x="190.136719"/>
      <use xlink:href="#DejaVuSans-6e" x="271.923828"/>
      <use xlink:href="#DejaVuSans-20" x="335.302734"/>
      <use xlink:href="#DejaVuSans-28" x="367.089844"/>
      <use xlink:href="#DejaVuSans-6e" x="406.103516"/>
      <use xlink:href="#DejaVuSans-6f" x="469.482422"/>
      <use xlink:href="#DejaVuSans-69" x="530.664062"/>
      <use xlink:href="#DejaVuSans-73" x="558.447266"/>
      <use xlink:href="#DejaVuSans-79" x="610.546875"/>
      <use xlink:href="#DejaVuSans-29" x="669.726562"/>
     </g>
    </g>
    <g id="patch_127">
     <path d="M 870.684375 346.510312 
L 890.684375 346.510312 
L 890.684375 339.510312 
L 870.684375 339.510312 
z
" style="fill: #ffc4d0"/>
    </g>
    <g id="text_35">
     <!-- Unknown (noisy) -->
     <g transform="translate(898.684375 346.510312) scale(0.1 -0.1)">
      <use xlink:href="#DejaVuSans-55"/>
      <use xlink:href="#DejaVuSans-6e" x="73.193359"/>
      <use xlink:href="#DejaVuSans-6b" x="136.572266"/>
      <use xlink:href="#DejaVuSans-6e" x="194.482422"/>
      <use xlink:href="#DejaVuSans-6f" x="257.861328"/>
      <use xlink:href="#DejaVuSans-77" x="319.042969"/>
      <use xlink:href="#DejaVuSans-6e" x="400.830078"/>
      <use xlink:href="#DejaVuSans-20" x="464.208984"/>
      <use xlink:href="#DejaVuSans-28" x="495.996094"/>
      <use xlink:href="#DejaVuSans-6e" x="535.009766"/>
      <use xlink:href="#DejaVuSans-6f" x="598.388672"/>
      <use xlink:href="#DejaVuSans-69" x="659.570312"/>
      <use xlink:href="#DejaVuSans-73" x="687.353516"/>
      <use xlink:href="#DejaVuSans-79" x="739.453125"/>
      <use xlink:href="#DejaVuSans-29" x="798.632812"/>
     </g>
    </g>
   </g>
  </g>
 </g>
 <defs>
  <clipPath id="pf3752c77e5">
   <rect x="47.81" y="29.28" width="949.39" height="328.31"/>
  </clipPath>
 </defs>
</svg>
